<svg id="Layer_1" data-name="Layer 1" xmlns="http://www.w3.org/2000/svg" viewBox="0 0 491.79 75.84"><defs><style>.cls-1{isolation:isolate;font-size:52px;font-family:Poppins-Bold, Poppins;font-weight:700;}.cls-1,.cls-2{fill:#78AFC5;}.cls-2{fill-rule:evenodd;}</style></defs><text class="cls-1" transform="translate(0 44.33)">BRATTEN</text><path class="cls-2" d="M262.51,22.61c-.81.13-.83,1.2-.62,1.85a13.7,13.7,0,0,0,1,3.08c.51.63,1.55-.1,1.21-.85a12.92,12.92,0,0,1-.78-2.75.86.86,0,0,0-.24-1.19.87.87,0,0,0-.59-.14m10.13.15a1,1,0,0,0-.35.07h-.18c-.52.4-.51,1.26-.84,1.83a23.81,23.81,0,0,0-1,2.95.74.74,0,0,0,1.43.24c.5-1.47,1.13-2.92,1.57-4.41a.64.64,0,0,0-.58-.69h0m-18.08,2.11c-.63.06-.85.92-.5,1.42a23,23,0,0,0,2.23,4c.59.51,1.49-.37,1.06-1a31,31,0,0,1-2.16-4.12.76.76,0,0,0-.63-.26m27.83,5.43h-.15a58,58,0,0,1-7,1.68.81.81,0,0,0,.27,1.49,42,42,0,0,0,7.16-1.72.81.81,0,0,0,.28-1.11.84.84,0,0,0-.55-.38m-15.94,1a7.6,7.6,0,0,0-6.82,5.52,6.36,6.36,0,0,0,1.37,6,8.63,8.63,0,0,0,7.9,2.37A5.6,5.6,0,0,0,273,41.9,6.69,6.69,0,0,0,271.25,34a5.72,5.72,0,0,0-2.15-1,.7.7,0,0,0,0-1,.8.8,0,0,0-.32-.19,4.23,4.23,0,0,0-2.31-.55M249.86,34c-.76.06-.86,1.28-.16,1.56a15.31,15.31,0,0,0,4.3,2.23c.84.09,1-1.44.2-1.58A16.24,16.24,0,0,1,250.14,34a.86.86,0,0,0-.32,0m27.71,3.47a.82.82,0,0,0-.63,1,.8.8,0,0,0,.51.59,40.26,40.26,0,0,0,7.28.3.81.81,0,0,0-.1-1.55,48.94,48.94,0,0,1-7.06-.3m-23.44,5.1a13.09,13.09,0,0,0-3.79,1.9c-.56.22-1.12,1-.6,1.55s1.07.08,1.46-.27a15.85,15.85,0,0,1,2.3-1.31c.86.75,2.08-1,1.23-1.69a.74.74,0,0,0-.6-.2m22.06,1.84c-.95.09-.78,1.58.1,1.63,1.44.87,2.37,2.49,3.74,3.45.73.28,1.32-.87.7-1.37-1.42-1.21-2.48-3-4.26-3.69a.66.66,0,0,0-.28,0m-15,2.7c-.66.16-1,.91-1.53,1.34a2.24,2.24,0,0,1-.6,1.25,12.52,12.52,0,0,0-2.24,4.37.73.73,0,0,0,1.44.16c.76-2.29,2.42-4,3.68-6a.77.77,0,0,0-.37-1,.84.84,0,0,0-.38-.08m7.17,1.41a.83.83,0,0,0-.67,1,.81.81,0,0,0,.14.33c.55,1.78.42,3.7.73,5.53a.74.74,0,0,0,1,.44.75.75,0,0,0,.47-.84,32.49,32.49,0,0,0-.79-5.8.88.88,0,0,0-.83-.63" transform="translate(-9.37 -12.06)"/><text class="cls-1" transform="translate(279.94 44.33)">STRAND</text></svg>