<svg id="Layer_1" data-name="Layer 1" xmlns="http://www.w3.org/2000/svg" viewBox="0 0 512 180.11"><defs><style>.cls-1{font-size:52px;font-family:Poppins-Bold, Poppins;font-weight:700;}.cls-1,.cls-2,.cls-3{fill:#78AFC5;}.cls-2{fill-rule:evenodd;}</style></defs><text class="cls-1" transform="translate(8.37 57.9)">BRATTEN</text><path class="cls-2" d="M261.51,24.12c-.81.13-.83,1.2-.62,1.85a14.09,14.09,0,0,0,1,3.08c.51.63,1.55-.1,1.21-.85a13,13,0,0,1-.78-2.75.86.86,0,0,0-.83-1.33m10.13.15a.87.87,0,0,0-.35.07l-.1,0h-.08c-.52.4-.51,1.26-.84,1.83a24.45,24.45,0,0,0-1,2.95.74.74,0,0,0,1.43.24c.5-1.47,1.13-2.92,1.57-4.41a.64.64,0,0,0-.62-.7m-18.08,2.11c-.63.06-.85.92-.5,1.42a23.74,23.74,0,0,0,2.23,4c.59.51,1.49-.37,1.06-1a31.71,31.71,0,0,1-2.16-4.12.74.74,0,0,0-.63-.26m27.83,5.43a.76.76,0,0,0-.15,0,59.67,59.67,0,0,1-7,1.68A.81.81,0,0,0,274.5,35a42.63,42.63,0,0,0,7.16-1.72.81.81,0,0,0-.27-1.49m-15.94,1a7.59,7.59,0,0,0-6.82,5.52A6.37,6.37,0,0,0,260,44.35a8.63,8.63,0,0,0,7.9,2.37,5.61,5.61,0,0,0,4.1-3.31,6.69,6.69,0,0,0-1.75-7.88,5.56,5.56,0,0,0-2.15-1,.7.7,0,0,0-.3-1.18,4.14,4.14,0,0,0-2.31-.55M248.86,35.5c-.76.06-.86,1.28-.16,1.56A15.27,15.27,0,0,0,253,39.29c.84.09,1-1.44.2-1.58a16.59,16.59,0,0,1-4.06-2.18.85.85,0,0,0-.32,0M276.53,39a.81.81,0,0,0-.12,1.55,41.19,41.19,0,0,0,7.28.3.81.81,0,0,0-.1-1.55,48.88,48.88,0,0,1-7.06-.3M253.09,44.1A12.91,12.91,0,0,0,249.3,46c-.56.22-1.12,1-.6,1.55s1.07.08,1.46-.27a15.58,15.58,0,0,1,2.3-1.31c.86.75,2.08-1,1.23-1.69a.72.72,0,0,0-.6-.2m22.06,1.84c-.95.09-.78,1.58.1,1.63,1.44.87,2.37,2.49,3.74,3.45.73.28,1.32-.87.7-1.37-1.42-1.21-2.48-3-4.26-3.69a.65.65,0,0,0-.28,0m-15,2.7c-.66.16-1,.91-1.53,1.34,0,.47-.3.83-.6,1.25a12.43,12.43,0,0,0-2.24,4.37.73.73,0,0,0,1.44.16c.76-2.29,2.42-4,3.68-6a.78.78,0,0,0-.75-1.11m7.17,1.41a.83.83,0,0,0-.53,1.3c.55,1.78.42,3.7.73,5.53a.74.74,0,0,0,1.42-.4,32.13,32.13,0,0,0-.79-5.8.87.87,0,0,0-.83-.63M210,61.8c-.11,0-.21,0-.32.06l-.23.07a2.13,2.13,0,0,0-.79.44,3,3,0,0,0-.92,1.81,1.82,1.82,0,0,0,.12,1.08.86.86,0,0,0-.15.43c-1.63.57-3.38,1.26-5.19,2.08l-.11.06a85.13,85.13,0,0,0-16.66,10.06c-8.2,6.39-15.06,14.53-15.79,23.54a1,1,0,0,0-.07.77c1.35,3.73,3.62,6.24,6.32,6.64a5.19,5.19,0,0,0,4-1.14,10.31,10.31,0,0,0,2.76-3.77c.26.23.54.49,1,.93a25.07,25.07,0,0,0,4.32,4,12,12,0,0,0,9.43,1.29,14.12,14.12,0,0,0,7.23-4,12.53,12.53,0,0,0,1.81-2.59,24.14,24.14,0,0,0,2.69,2,13.63,13.63,0,0,0,9.73,2.09l1.1,4.87.35-.15.21,0a7.11,7.11,0,0,0-2.37,1.48c-.74.7-1.31,1.41-1.77,1.86a2.36,2.36,0,0,0-.45-.44,7.06,7.06,0,0,1-1.51-1.46,3,3,0,0,0-1.13-1.24,5.31,5.31,0,0,0-1.37-.51c-1.09-.27-1.95-.57-3.16-.88a12.38,12.38,0,0,0-2.91-.29c-.66,0-1.67-.27-2.77-.25a5,5,0,0,0-1.13.16,16,16,0,0,0-3.87,1,8.34,8.34,0,0,0-4.39,3.73.81.81,0,0,0-.31,0l-.16,0a3,3,0,0,1-.55-.53,4,4,0,0,0-2.14-1.82,6.94,6.94,0,0,0-1.9-.22,11.82,11.82,0,0,0-5,1.45,3,3,0,0,0-1.55,1.62,3.05,3.05,0,0,0,0,2,6,6,0,0,0,2.09,2.83,2.51,2.51,0,0,0,2,.39,6.5,6.5,0,0,0,1.85-.71c1.18-.62,2.28-1.45,2.74-1.73.68-.41,1.11-.74,1.49-1l.27-.14c-.25.65-.41,1.27-.62,1.81a8,8,0,0,0-.45,3.13v3.18c0,1.24-.12,2.46-.12,3.81s.25,2.19.25,3.18v2.57c-.24-.43-.47-.9-.71-1.4a21.76,21.76,0,0,0-1.83-3.31,19.7,19.7,0,0,1-1.05-1.78l-.58-1.1a1.26,1.26,0,0,0,.18-.27,1.8,1.8,0,0,0,.17-.53c.15-.69.18-1.56.23-1.8s.15-.51.2-.79a2.31,2.31,0,0,0,0-1,.84.84,0,0,0-.87-.65.81.81,0,0,0-.63.34.85.85,0,0,0-.14.71c.06.22.06.18.05.26s-.11.32-.2.74a6,6,0,0,0-.11.76c-.32-.38-.66-.78-1-1.13l-.42-.4a1.15,1.15,0,0,0-.45-.32.69.69,0,0,0-.35-.1,1,1,0,0,0-.74.37.85.85,0,0,0-.16.59.7.7,0,0,0,.07.23,2.19,2.19,0,0,0,.3.59l.22.32a6.28,6.28,0,0,0-1.14-.74,1.14,1.14,0,0,0-.42-.11,1,1,0,0,0-.83.4.87.87,0,0,0-.14.73,1.61,1.61,0,0,0,.12.37.86.86,0,0,0,1.07.46c.14.1.18.11.37.25.42.3.92.67,1.42,1a4.64,4.64,0,0,0,1.53.75,1.07,1.07,0,0,0,.44,0c.14.25.28.52.43.82a19.69,19.69,0,0,0,1.16,2,21.26,21.26,0,0,1,1.69,3,13.93,13.93,0,0,0,1.75,3,1,1,0,0,0,.31.26c0,.31,0,.62,0,.95v3.18c0,1.13.13,2.23.13,3.18,0,.3-.13,2.25-.28,4-.08.89-.15,1.76-.22,2.44,0,.33-.07.62-.09.83s0,.31,0,.33a.91.91,0,0,0,.67,1.07.88.88,0,0,0,.77-.17,2,2,0,0,0,.65.26,4.83,4.83,0,0,0,2.07-.06,10.29,10.29,0,0,0,1.92-.6,6.91,6.91,0,0,0,.77-.38l0,0c.27.13.61.3,1,.48l.42.15s0,.38,0,.85-.09,1.09-.17,1.73a33.14,33.14,0,0,1-.65,3.36c-.25.89-.42,1.67-.64,2.33-1.05,0-2.08.08-3,.08-3.48,0-10.56.62-13.59,0-.4-.08-3.36-.28-5.55-.44a45.23,45.23,0,0,0-6-.42H154.27l-.5,0-1.52-1c-.55-.34-1.09-.67-1.47-.93l-.29-.2c-.14-2.4.44-5.79.16-8.76,0-.34,0-1.51.11-2.92s.26-3.1.4-4.73.31-3.22.39-4.42c0-.59.06-1.09.06-1.48v-.14c1.5,0,3.29.21,4.83.21,1.23,0,2.42.1,3.72.1h.67a.78.78,0,0,0,.71-.06.88.88,0,0,0,.4-.77s0-.9.09-2,.14-2.4.22-3.75.14-2.69.2-3.75.09-1.71.09-2c0-.67.2-1.44.2-2.4s.11-1.85.11-3v-3.67a27.35,27.35,0,0,1,0-4,21.36,21.36,0,0,0,.13-3.61c0-.55-.06-1.09-.1-1.59,2.44-4.69,3-11.32,4.62-16.32a4.36,4.36,0,0,0,.15-1.52,2.37,2.37,0,0,1,0-.58.69.69,0,0,0,.08-.28l.17,0a4.87,4.87,0,0,0,1.42-.92c.45-.39.91-.82,1.3-1.17A3.4,3.4,0,0,1,171,85a.81.81,0,0,0,1-.57A1.51,1.51,0,0,0,172,84a.91.91,0,0,0-.21-.74A1,1,0,0,0,171,83a.94.94,0,0,0-.36.16,6.66,6.66,0,0,0-1.06.88l.16-.3a3.14,3.14,0,0,0,.25-.61,1.31,1.31,0,0,0,0-.25.87.87,0,0,0-.2-.6A1,1,0,0,0,169,82a.67.67,0,0,0-.31.12,1.62,1.62,0,0,0-.42.37l-.35.46c-.31.42-.62.88-.9,1.32a6.2,6.2,0,0,0-.2-.77c-.13-.42-.22-.66-.24-.73s0,0,0-.23a.9.9,0,0,0-.22-.72.78.78,0,0,0-.66-.28.81.81,0,0,0-.74.75,2.59,2.59,0,0,0,0,1c.09.27.17.43.28.77s.2,1.09.42,1.77a2.13,2.13,0,0,0,.23.53,1.29,1.29,0,0,0,.43.4.76.76,0,0,0-.15.23,2.89,2.89,0,0,0-.21,1.4,2.57,2.57,0,0,1-.07.91c-1.18,3.69-1.85,8-2.87,11.68v-.56c0-1.29-.09-2.54-.09-3.76s-.11-2.52-.11-3.67a11.55,11.55,0,0,0-.65-3.27,6.55,6.55,0,0,0-1.58-2.92,2.17,2.17,0,0,1-.33-.63,3.38,3.38,0,0,0-.7-1.14s-.21-.34-.4-.68a2.9,2.9,0,0,0-.82-1.08,10.29,10.29,0,0,0-1.77-1.34,9.06,9.06,0,0,0-2.24-1.11,4.59,4.59,0,0,1-.77-.36,2.69,2.69,0,0,0-1.28-.4c-.61,0-1.6-.2-2.6-.2a9.83,9.83,0,0,1-2.28-.29,6.05,6.05,0,0,0-1.48-.16,10.19,10.19,0,0,0-1.42.14l-.34,0c-1-.57-2.1,0-3.29,0h-.59a15.54,15.54,0,0,0-4.12.73,39.31,39.31,0,0,0-7.87,3.3,1.3,1.3,0,0,0-.37.37.78.78,0,0,0-.29.77,1.1,1.1,0,0,0,.45.74.93.93,0,0,0,.45.14,1.51,1.51,0,0,0,.46-.06,17.8,17.8,0,0,0,2.25-.88l2.66-1.18a7.15,7.15,0,0,0-1.21,1.24,9.43,9.43,0,0,0-1.8,3.72c-.12.6-.25,1.21-.37,1.8l-.19.06c-1.25,1-1,2.83-.63,4.18,0,0,0,0,0,.07a10.91,10.91,0,0,0-.07,1.29c0,.14,0,.3,0,.45l-.09,0a1.19,1.19,0,0,0-.45,0,6.16,6.16,0,0,0-1.33.42l.42-.39a2.94,2.94,0,0,0,.45-.49,1,1,0,0,0,.12-.22.78.78,0,0,0,0-.55,1.05,1.05,0,0,0-.62-.62.67.67,0,0,0-.4,0,1.33,1.33,0,0,0-.56.21c-.15.08-.31.18-.49.3-.38.23-.8.5-1.17.76a7.36,7.36,0,0,0,.12-.8c0-.45,0-.73,0-.83s0-.08.11-.29a.83.83,0,0,0,0-.85.89.89,0,0,0-.76-.43.86.86,0,0,0-.77.46l0,.08c-.17-.38-.33-.76-.51-1.13a2.6,2.6,0,0,1-.2-.89,2.83,2.83,0,0,0-.38-1.38,1.26,1.26,0,0,0-.2-.2,1.21,1.21,0,0,0,.36-.46,2.41,2.41,0,0,0,.18-.56c.12-.7.12-1.58.16-1.82s.13-.49.17-.78a2.34,2.34,0,0,0-.09-1,.81.81,0,0,0-1.45-.3.91.91,0,0,0-.11.77c.07.23,0,.16,0,.24s-.07.32-.15.75A5.16,5.16,0,0,0,122,87c-.34-.39-.71-.8-1.07-1.16-.15-.15-.28-.29-.41-.4a1.35,1.35,0,0,0-.47-.31.71.71,0,0,0-.32-.08.94.94,0,0,0-.72.41.78.78,0,0,0-.13.61.91.91,0,0,0,.06.25,2.55,2.55,0,0,0,.33.57l.2.28a7.5,7.5,0,0,0-1.16-.73,1.13,1.13,0,0,0-.4-.09.91.91,0,0,0-.8.42.94.94,0,0,0-.13.77,2,2,0,0,0,.14.38.82.82,0,0,0,1,.42l.4.28c.43.29.93.64,1.44,1a4.56,4.56,0,0,0,1.52.71l.19,0a.85.85,0,0,0,.11.26,2.6,2.6,0,0,1,.11.57,4.3,4.3,0,0,0,.36,1.48c.52,1.07,1,2.24,1.44,3.44,0,.2,0,.4-.06.59a2.2,2.2,0,0,0,0,.57,1.15,1.15,0,0,0,.33.65.85.85,0,0,0-.34.21,2.73,2.73,0,0,0-.69,1.27,3.21,3.21,0,0,1-.42.89c-3.16,4-6,9.42-9.05,12.75,0-.37,0-.74,0-1.12,0-1.4.07-2.79,0-4.25s-.14-2.92-.16-4.35a26.53,26.53,0,0,1,.12-4.12,10.47,10.47,0,0,0,.09-1.58l1.42-.23c.65-.1,1.28-.19,1.76-.28s.72-.12.87-.15a.87.87,0,0,0,.71-.88.85.85,0,0,0-.79-.81.75.75,0,0,0-.26,0l-.82.14-1.76.29-1.22.19c0-.38-.06-.74-.06-1.08a22.83,22.83,0,0,0-.57-4.06c-.26-1.31-.52-2.53-.78-3.8A10.1,10.1,0,0,0,110.25,83a11.57,11.57,0,0,0-2.34-2.22,14.69,14.69,0,0,0,.87-2.84.91.91,0,0,0-.16-.7.92.92,0,0,0-.63-.34.9.9,0,0,0-.95.74,10.43,10.43,0,0,1-.56,2,8.07,8.07,0,0,0-2.79-1,14.26,14.26,0,0,1-1.63-.34.89.89,0,0,0-.83-.71.9.9,0,0,0-.65.23v0a7.26,7.26,0,0,0-.8,0c-.57,0-1.16,0-1.3-.05a10,10,0,0,0-1.16-.13,3.18,3.18,0,0,0-.09-.33c-.08-.25-.19-.53-.31-.84-.24-.6-.53-1.28-.66-1.63a.91.91,0,0,0-.79-.59h-.11a.92.92,0,0,0-.65.35.9.9,0,0,0-.1.84c.16.43.43,1.09.66,1.66.11.29.21.56.26.73,0,0,0,0,0,0a8.8,8.8,0,0,1-2.21.36c-1,0-2,.26-2.55.28a1.45,1.45,0,0,0-.3,0c-.55-.43-1.09-.94-1.7-1.45a.87.87,0,0,0-1.39.34.89.89,0,0,0,.26,1c.35.29.69.62,1.07.94a8.67,8.67,0,0,0-2.2,1.23A10.63,10.63,0,0,0,84.79,82,3.12,3.12,0,0,0,84,83.17c-.19.37-.38.71-.41.74A3.56,3.56,0,0,0,83,85.13a2.53,2.53,0,0,1-.36.71,7.23,7.23,0,0,0-1.48,3.1,13.19,13.19,0,0,0-.58,3.44c0,1.24,0,2.56,0,3.91s-.06,2.67,0,4a26.56,26.56,0,0,0,.28,4.15,30.92,30.92,0,0,1-.06,3.67,24.91,24.91,0,0,0,.16,3.81c0,.14.05.27.07.4-2.85-3.49-5.31-8.9-8.21-13a3.08,3.08,0,0,1-.39-.91,2.77,2.77,0,0,0-.63-1.3.86.86,0,0,0-.33-.23,1.08,1.08,0,0,0,.36-.64,2.25,2.25,0,0,0,0-.57c0-.73-.19-1.64-.2-1.94s0-.57,0-.86a2.53,2.53,0,0,0-.28-1,.83.83,0,0,0-.71-.51.9.9,0,0,0-.79.37.87.87,0,0,0-.06.87c.11.22.1.19.11.29s0,.38,0,.83a5.52,5.52,0,0,0,.07.8c-.36-.28-.76-.56-1.12-.81-.18-.13-.35-.24-.5-.33a1.24,1.24,0,0,0-.54-.24.73.73,0,0,0-.4,0,1,1,0,0,0-.65.58.85.85,0,0,0,0,.56,1.28,1.28,0,0,0,.11.21,3.36,3.36,0,0,0,.42.53c.1.11.26.27.4.4a5.63,5.63,0,0,0-1.3-.49,1,1,0,0,0-.46,0,1,1,0,0,0-.74.61.83.83,0,0,0,.05.71,1.52,1.52,0,0,0,.19.36.89.89,0,0,0,1.2.23l.35.15c.47.21,1,.46,1.57.67a4.71,4.71,0,0,0,1.69.37.4.4,0,0,1,.11,0,.67.67,0,0,0,.13.21,2.76,2.76,0,0,1,.23.6,4.61,4.61,0,0,0,.64,1.42c3.12,4.41,5.81,10.84,9.63,14.57a0,0,0,0,0,0,0c0,.44,0,.89,0,1.35l.06,3.91c0,1.16.12,2,.14,3.13s.23,1.81.24,2.56c0,.29.06,1,.13,2.15s.17,2.55.26,4,.19,2.87.26,4,.13,2,.13,2.1a.84.84,0,0,0,.43.76.87.87,0,0,0,.72.06l.67,0c1.29,0,2.47-.17,3.67-.2.33,0,.67,0,1,0,0,0,0,.09-.05.14-.14.37-.31.87-.49,1.48-.37,1.21-.82,2.83-1.3,4.5s-1,3.41-1.4,4.83a28.11,28.11,0,0,1-1,3c-1.35,2.8-1.53,6.15-2.57,8.5l-.33.07c-.44.1-1,.2-1.68.32l-1.79.3c-.5.09-.85.15-1.11.22-.9-.07-3.16-.2-3.7-.2H56v1.76H71.44c1.13,0,4.1.11,5.39.21h0a.59.59,0,0,0,.46.08s.5-.11,1-.2l1.82-.31c.63-.11,1.24-.22,1.72-.32l.64-.16a1.71,1.71,0,0,0,.26-.07l.17-.11a1.68,1.68,0,0,0,.34-.53c1.34-2.79,1.46-6.21,2.71-8.8a28,28,0,0,0,1.1-3.21c.44-1.45.93-3.18,1.4-4.85s.94-3.29,1.3-4.47c.18-.6.33-1.09.45-1.41.05-.13.08-.2.11-.26a.87.87,0,0,0,.21-.62,11.21,11.21,0,0,1,3.36.05c2.39.6,4.65,0,6.55.22a20.84,20.84,0,0,0,4.69-.16c.09,5.91.44,11.6-.45,17.06a14.8,14.8,0,0,0-.21,2.6,1.79,1.79,0,0,0,.34,1.11,5.49,5.49,0,0,0,.83.94,19.05,19.05,0,0,0,2.35,1.8c.84.57,1.7,1.1,2.36,1.48.32.2.62.35.81.47l.24.13.07.07a.91.91,0,0,0,.85.06.87.87,0,0,0,.53-.71.85.85,0,0,0-.39-.79.35.35,0,0,0-.12-.06c.8,0,1.6-.09,2.37-.09,2.54,0,9.26.46,12.26.46,2.25,0,4.45-.18,6.59-.25a.79.79,0,0,0,1,.17l0,0h0c.06,0,.13-.09.24-.14l.8-.45c.66-.38,1.52-.88,2.38-1.43a18.69,18.69,0,0,0,2.34-1.73,4.69,4.69,0,0,0,.83-.91,1.69,1.69,0,0,0,.34-1.13h0a13.25,13.25,0,0,0-.26-2.47c-1-5-1-12.29-1-17.8a16.55,16.55,0,0,0,3-.08c1.95-.24,4.22.27,6.56-.3,0,.31,0,.75-.06,1.29-.08,1.17-.22,2.73-.37,4.37s-.31,3.34-.42,4.77a24.83,24.83,0,0,0-.11,3.22c.25,2.71-.44,6.11-.16,9.08a.7.7,0,0,0,.2.5.94.94,0,0,0,.12.14c.07.07.15.11.22.17s.3.23.51.37l1.51,1,1.59,1,.89.57a.8.8,0,0,0,.85.11.93.93,0,0,0,.4-.43H170c1.51-.05,2.91.32,4.44.34h0c.28.05,6.46.43,6.73.48,3.52.71,10.67,0,13.92,0l3,0c.51.61,1.42.37,1.57-.88.35-.91.51-1.85.78-2.8a30,30,0,0,0,.69-3.59c.09-.67.15-1.3.18-1.85,0-.2,0-.37,0-.54a4.26,4.26,0,0,0,1.12-.06,13.64,13.64,0,0,0,1.9-.69,8.7,8.7,0,0,0,1.9,1,3,3,0,0,0,2.22.13,3.51,3.51,0,0,0,.9-.53c.09.64.22,1.38.38,2.16.38,1.84.88,3.87,1.16,5a8.28,8.28,0,0,0,.86,2c.16.27.29.51.4.68l.14.2c0,.05,0,0,.07.11a.91.91,0,0,0,.84.36.86.86,0,0,0,.62-.38H221l10.73-.06.85,3.08a.93.93,0,0,0,.67.7.89.89,0,0,0,.9-.25.94.94,0,0,0,.22-.94l-.72-2.61,13.92-.07a.84.84,0,0,0,.86.13l1-.26,1.76-.46c.62-.17,1.23-.32,1.7-.46l.6-.2.26-.13.16-.09a.77.77,0,0,0,.31-.42c1.1-2.9,1-5.39,2-8.08a25.74,25.74,0,0,0,.84-3.29c.31-1.48.65-3.25,1-5s.67-3.35.93-4.57c.13-.61.25-1.11.34-1.43l.08-.28a.9.9,0,0,0,.18-.65,10.86,10.86,0,0,1,3.3-.23c2.42.4,4.6-.37,6.5-.31a20.59,20.59,0,0,0,4.63-.54c.57,5.9,1.24,12.65.8,18.19a15.26,15.26,0,0,0,0,2.62h0a1.87,1.87,0,0,0,.42,1.08,5.45,5.45,0,0,0,.91.88,19.9,19.9,0,0,0,2.47,1.61c.89.49,1.77.94,2.45,1.27l.84.41a1.76,1.76,0,0,1,.24.12h0a.86.86,0,0,0,1-.1h1.17a20.89,20.89,0,0,1,4.62.26c2.37.59,4.75-.26,6.43-.26h7.93c3,0,5.74-.57,8.51-.57,2.37,0,4.79-.28,7.08-.28a26.34,26.34,0,0,1,3.94.43.89.89,0,0,0,.55.23.9.9,0,0,0,.93-.88l0-1.09c0-.54,0-1.85,0-2.47.81.89,1.68,1.81,2.33,2.56a37.09,37.09,0,0,0,2.63,2.67.86.86,0,0,0,1.25-.08.93.93,0,0,0,.23-.65c1.45-.07,2.88-.15,4.27-.15,2.57,0,5.67.38,8.43-.31,3.19-.8,7.73-.26,11.4-.26h5.5a.93.93,0,0,0,1.14,0l.06-.05h0l.25-.17.85-.57c.69-.48,1.59-1.11,2.48-1.81a20.35,20.35,0,0,0,2.46-2.17,5.93,5.93,0,0,0,.86-1.13,2.18,2.18,0,0,0,.34-1.28,18.64,18.64,0,0,0-.26-3c-1.09-6.77-1-15.27-1-22.48V130a23.07,23.07,0,0,0,4.92.05c2.06-.26,4.45.28,6.95-.36a11.3,11.3,0,0,1,3.05-.15,1,1,0,0,0-.06.85c0,.08,0,.19,0,.37,0,.41,0,1-.08,1.76-.08,1.47-.23,3.45-.38,5.5s-.31,4.19-.42,6a36.16,36.16,0,0,0-.12,4c.26,3.47-.08,7.42.2,11.08a.77.77,0,0,0,.15.48,1.89,1.89,0,0,0,.14.19l.2.21c.15.14.34.29.56.46.43.35,1,.77,1.59,1.21l1.65,1.23.94.71a1,1,0,0,0,.83.22l.1.07c2.88.14,14.69-.27,17.21-.27,3,0,6.3-.37,8.84.26l.55.11a1,1,0,0,0,.45.17.93.93,0,0,0,.85-.4c.24-.33,1.7-2.08,2.87-3.69.36-.5.7-1,1-1.47a27.36,27.36,0,0,0,.37,4.88.93.93,0,0,0,.63.71.92.92,0,0,0,.92-.23,1,1,0,0,0,.23-.93,29.29,29.29,0,0,1-.31-4.89c0-6.2-1.51-13.88-1.58-18.81a.89.89,0,0,0-.07-.36l.46-.08c1.54-.32,3.6,0,5.57.1.06.18.12.4.23.73.26.74.67,1.85,1.13,3.13.93,2.56,2.11,5.72,2.92,7.64.42,1,1.29,4,1.72,5.4l0,0a.91.91,0,0,0,.16,1l.24.26a34.79,34.79,0,0,1,1,4l.37,2.29a1,1,0,0,0,.28.51.91.91,0,0,0,.77.26.92.92,0,0,0,.59-.36c.75-.05,1.48-.09,2.14-.09,3.12,0,2.23.14,5.34.14h11.61c1.94,0,3.87-.09,5.77-.17a1,1,0,0,0,.39.25.91.91,0,0,0,.88-.16l.09-.06.23-.15.8-.57c.65-.46,1.49-1.07,2.33-1.75a20.84,20.84,0,0,0,2.32-2.11,6.14,6.14,0,0,0,.8-1.1,2,2,0,0,0,.29-1.18h0a19.93,19.93,0,0,0-.26-2.92c-1-6.38-1-14.35-1.05-21.19a16.74,16.74,0,0,0,2.82-.1c1.87-.24,4,.2,6.31-.31a.65.65,0,0,0,.05.2.56.56,0,0,0,.09.19.68.68,0,0,1-.09-.16v.36c0,.39,0,1-.06,1.7-.08,1.41-.21,3.31-.34,5.29s-.28,4-.37,5.75a35.1,35.1,0,0,0-.1,3.84c.27,3.35-.49,6-.21,9.53,0,.58.19.53.26.61a1.45,1.45,0,0,0,.22.21c.14.14.32.28.52.45.41.33.95.74,1.5,1.16l1.56,1.19c.45.34.84.63.89.68a.92.92,0,0,0,1.08.09h0c3.78.23,24.62-.3,32-.39v-1.77c-7.9.07-31.13.64-32.1.4l-.15,0-.62-.48L478.58,160c-.55-.41-1.06-.82-1.44-1.13-.14-.11-.25-.18-.34-.26-.18-3,.52-5.68.24-9.24,0-.48,0-1.88.09-3.58s.23-3.74.37-5.73.26-3.89.34-5.33c0-.72.07-1.32.07-1.77a5.5,5.5,0,0,0,0-.59c0-.08,0-.15,0-.25,1.48,0,3.24.18,4.79.17,1.22,0,2.41.1,3.71.09h.74l.2,0a.84.84,0,0,0,.84-.83c0-.06,0-.9.09-2s.12-2.39.19-3.73.13-2.67.18-3.72.08-1.7.08-2c0-.68.2-1.46.2-2.41s.09-1.8.09-2.89,0-2.43,0-3.65c0-.28,0-.56,0-.83a.89.89,0,0,0,.38-.23c3.77-3.56,6.37-9.62,9.44-13.79a4.09,4.09,0,0,0,.61-1.36,2.53,2.53,0,0,1,.21-.54.83.83,0,0,0,.15-.23l.17,0a5,5,0,0,0,1.64-.39c.55-.21,1.1-.46,1.57-.66l.42-.17a.83.83,0,0,0,1.12-.22,1.8,1.8,0,0,0,.21-.34.92.92,0,0,0,0-.74,1,1,0,0,0-1.16-.54,7.12,7.12,0,0,0-1.28.46c.09-.09.23-.2.31-.27a3.13,3.13,0,0,0,.4-.5,1,1,0,0,0,.11-.21.81.81,0,0,0,0-.59,1,1,0,0,0-.67-.54.59.59,0,0,0-.35,0,1.16,1.16,0,0,0-.51.23,5.68,5.68,0,0,0-.5.29c-.4.27-.8.58-1.18.88,0-.26,0-.53,0-.77,0-.43,0-.68,0-.76s0,0,.08-.25a.85.85,0,0,0-.05-.83.86.86,0,0,0-.75-.39.85.85,0,0,0-.7.48,2.41,2.41,0,0,0-.27.94c0,.29,0,.47,0,.82s-.16,1.11-.16,1.81a2.25,2.25,0,0,0,.06.55,1.1,1.1,0,0,0,.3.54.67.67,0,0,0-.25.19,2.59,2.59,0,0,0-.62,1.23,2.47,2.47,0,0,1-.36.85c-3,4.11-5.51,9.58-8.54,12.87a7.49,7.49,0,0,1,.07-1.07,21.59,21.59,0,0,0,.1-3.56,28.12,28.12,0,0,1-.13-3.4,23.19,23.19,0,0,0,.19-3.88c0-1.28-.1-2.53-.11-3.75s-.12-2.49-.12-3.64a11.53,11.53,0,0,0-.65-3.21,6.66,6.66,0,0,0-1.58-2.89,2,2,0,0,1-.35-.63,3.08,3.08,0,0,0-.68-1.12,7.1,7.1,0,0,1-.42-.67,2.94,2.94,0,0,0-.81-1.08A10.54,10.54,0,0,0,482.59,78l-.08,0A3.72,3.72,0,0,0,484,76.19a.85.85,0,0,0-.81-1.17.85.85,0,0,0-.77.54,2,2,0,0,1-.93,1.08,3.53,3.53,0,0,1-.92.34l-.21,0a5.15,5.15,0,0,1-.75-.35,2.78,2.78,0,0,0-1.31-.4c-.6,0-1.58-.19-2.58-.19a9.15,9.15,0,0,1-2.27-.27,5.75,5.75,0,0,0-1.5-.16,8.93,8.93,0,0,0-1.42.16c-.16,0-.74,0-1.31.07a3.87,3.87,0,0,0-1.7.33,11.14,11.14,0,0,1-2.23.55,7.2,7.2,0,0,0-3.75,1.72,17.86,17.86,0,0,0-2.73,2.49A9.23,9.23,0,0,0,457,84.56c-.11.58-.24,1.15-.35,1.72a3.48,3.48,0,0,0-.56,2.9,15.1,15.1,0,0,0-.31,2.72,23.35,23.35,0,0,0,0,4.09A23.42,23.42,0,0,1,456,99.8c0,1.33-.08,2.66-.07,4.07s.11,2.65.12,3.95v.31c-2.15-2.22-4-5.55-6-8.75a2.27,2.27,0,0,1,.56-1.26s0,0,0,0a1,1,0,0,0,.56,0,5,5,0,0,0,1.51-.79c.49-.34,1-.72,1.39-1,.18-.14.22-.15.37-.26a.83.83,0,0,0,1-.5,1.78,1.78,0,0,0,.13-.37.93.93,0,0,0-.16-.75,1,1,0,0,0-.87-.36,1,1,0,0,0-.39.12,6.57,6.57,0,0,0-1.13.78l.21-.34a2.06,2.06,0,0,0,.28-.58,1,1,0,0,0,.05-.25.78.78,0,0,0-.15-.57,1,1,0,0,0-.76-.37.72.72,0,0,0-.36.11,1.33,1.33,0,0,0-.44.34,5.76,5.76,0,0,0-.4.43c-.34.37-.67.77-1,1.16a6.19,6.19,0,0,0-.12-.77c-.11-.42-.2-.65-.22-.73s0,0,0-.26a.87.87,0,0,0-.17-.73.8.8,0,0,0-.64-.31.86.86,0,0,0-.84.68,2.49,2.49,0,0,0,0,1c.06.28.12.45.21.8s.11,1.1.28,1.79a2.41,2.41,0,0,0,.2.54l.11.15a4.43,4.43,0,0,0-.42.59c-.54-.84-1.09-1.66-1.66-2.43a2.47,2.47,0,0,1-.37-.83,2.71,2.71,0,0,0-.64-1.25,1,1,0,0,0-.24-.17,1.18,1.18,0,0,0,.29-.55,1.91,1.91,0,0,0,.06-.56c0-.7-.18-1.55-.18-1.8s0-.54,0-.82a2.34,2.34,0,0,0-.26-.93.81.81,0,0,0-.72-.47.81.81,0,0,0-.73.4.79.79,0,0,0,0,.81c.1.21.07.17.07.25s0,.34,0,.77a6.65,6.65,0,0,0,.06.77c-.39-.29-.8-.59-1.2-.86l-.5-.31a1.18,1.18,0,0,0-.51-.21.66.66,0,0,0-.37,0,1,1,0,0,0-.63.54.78.78,0,0,0,0,.59,1,1,0,0,0,.1.23l.16.2a2.45,2.45,0,0,0-.45.17l-.26-.08a1.11,1.11,0,0,0-.42,0,1,1,0,0,0-.73.58.89.89,0,0,0,0,.73l0,.09a2.11,2.11,0,0,0,0,1.94.88.88,0,0,0,.76.51.91.91,0,0,0,.83-1.37.44.44,0,0,1,.11-.43c.37.16.79.32,1.22.49a2,2,0,0,1,0,.68,3.39,3.39,0,0,1-.85,1.65,2.15,2.15,0,0,1-.45.22,3.26,3.26,0,0,1-.95.15,1.7,1.7,0,0,1-.76-.15.81.81,0,0,1-.21-.2,13.35,13.35,0,0,0-.28-3.17,12.46,12.46,0,0,0-1-2.74,5.35,5.35,0,0,0-1.05-1.9,9.83,9.83,0,0,0-1.14-1.53,11.76,11.76,0,0,0-2.09-1.8c-.18-.11-.57-.4-1-.68a3.8,3.8,0,0,0-1.31-.7c-1-.25-2-.33-3-.52a19.32,19.32,0,0,0-2-.34A5.58,5.58,0,0,0,424.44,81a16.35,16.35,0,0,0-4.38-.8c-.28,0-.56,0-.83,0a13.53,13.53,0,0,0-10.93,5.21,6.14,6.14,0,0,0-1.06,4.87c.19,1.25.53,2.41.64,3.6,0,0,0,0,0,0a4,4,0,0,0-.15,1.42,1,1,0,0,1-.19.17,2.81,2.81,0,0,1-1.37.37,6.23,6.23,0,0,1-3-.65,1.29,1.29,0,0,1-.61-.84,1.81,1.81,0,0,1,.2-1,3.44,3.44,0,0,1,1.62-1.48,1.24,1.24,0,0,1,.33.4.66.66,0,0,1,.08.23.92.92,0,0,0-.42,1.22.89.89,0,0,0,1.2.42,1.85,1.85,0,0,0,1-1.36,2.25,2.25,0,0,0-.3-1.36,2.91,2.91,0,0,0-.81-1,1.61,1.61,0,0,0-1.44-.37,4.65,4.65,0,0,0-2.91,2.5,3.41,3.41,0,0,0-.36,2.08,2.81,2.81,0,0,0,.34.94,3.15,3.15,0,0,0-1.11.26,2.73,2.73,0,0,0-1.32,1.41,5.69,5.69,0,0,0-.16,4.35,4.28,4.28,0,0,0,3.18,2.59,6.4,6.4,0,0,0,3.61-.11,4.44,4.44,0,0,0,2.3-2.22v5.29c0,1,.12,1.87.12,2.7v1.31l-.14.11c-1.68,1.57-3.88,2.59-5.45,3.81a4,4,0,0,0-1.66,2.32,3.75,3.75,0,0,0,1.06,3.06c1.34,1.63,3.75,3.1,5.06,4.56a2.88,2.88,0,0,1,.95,1.86,1.91,1.91,0,0,1-.73,1.3,7.46,7.46,0,0,0-1-.08c-.59,0-1.21,0-1.72,0a3.65,3.65,0,0,1-.47,0,.85.85,0,0,0-1.13-.23,2.16,2.16,0,0,0-.32.25.9.9,0,0,0-.31.68,1,1,0,0,0,.47.82,1.06,1.06,0,0,0,.4.14,6.74,6.74,0,0,0,1.37,0l-.37.16a2.32,2.32,0,0,0-.59.29.89.89,0,0,0-.18.17.79.79,0,0,0-.22.55,1,1,0,0,0,.4.75.86.86,0,0,0,.34.13,1.25,1.25,0,0,0,.56,0l.57-.09c.48-.1,1-.23,1.46-.36-.12.23-.24.47-.33.69-.17.41-.25.64-.28.72s0,0-.17.19a.87.87,0,0,0-.08,1.21.84.84,0,0,0,1.19.08,2.51,2.51,0,0,0,.6-.79c.12-.26.16-.44.3-.77.05-.13.22-.43.41-.78,0,.65-.08,1.24-.12,1.9-.08,1.29-.16,2.55-.24,3.41,0,.27,0,.41-.05.59l-.24.19a.93.93,0,0,0,.13.92,1,1,0,0,0,.21.19,1,1,0,0,0,.43.29,1,1,0,0,0,.82-.13l0,0h5.59c1.22,0,2.47,0,3.72-.11a1.11,1.11,0,0,0,0,.19c.06,4.41,1.12,10.47,1.45,15.79a1.05,1.05,0,0,0-.12.31s-.28.6-.71,1.27-1,1.46-1.57,2.25c-1,1.34-2,2.58-2.52,3.24l-.29-.06a18.57,18.57,0,0,0-4.73-.44c-1.58,0-3.14.13-4.54.13-2.86,0-12,.41-16.91.23-.22-.2-.55-.42-1-.77L385.43,160c-.57-.44-1.13-.86-1.53-1.18l-.34-.28c-.17-3.13.1-7-.18-10.73,0-.49,0-2,.12-3.72s.26-3.89.42-5.94.29-4,.38-5.54c.05-.75.08-1.38.08-1.85,0-.23,0-.42,0-.6a2.07,2.07,0,0,0-.05-.3.9.9,0,0,0,0-.24c.65,0,1.31.08,1.93.08,1.29,0,2.54.1,3.92.1h.74a.81.81,0,0,0,.69-.09A.88.88,0,0,0,392,129c0-.06,0-.94.09-2s.14-2.53.22-4,.16-2.83.21-3.93.1-1.81.1-2.12c0-.72.23-1.54.23-2.55s.1-1.92.1-3.08v-3.47a.82.82,0,0,0,.33-.18c4-3.76,4.09-12.68,6.3-17.41a13.28,13.28,0,0,0,.66-1.43,2.45,2.45,0,0,1,.21-.57.85.85,0,0,0,.17-.25l.18,0a4.86,4.86,0,0,0,1.72-.41c.59-.21,1.19-.47,1.69-.69l.44-.17a.86.86,0,0,0,1.17-.23,1.16,1.16,0,0,0,.22-.36.91.91,0,0,0,.05-.78,1,1,0,0,0-1.22-.59,6.54,6.54,0,0,0-1.34.5l.29-.28a3.16,3.16,0,0,0,.45-.53.73.73,0,0,0,.1-.23.79.79,0,0,0,0-.64,1,1,0,0,0-.69-.56.73.73,0,0,0-.37,0,1.43,1.43,0,0,0-.54.25,4.36,4.36,0,0,0-.51.31c-.43.28-.87.6-1.28.92a7.36,7.36,0,0,0,.06-.8c0-.46,0-.74,0-.82s0,0,.09-.25a.89.89,0,0,0,0-.89.85.85,0,0,0-.78-.4.84.84,0,0,0-.73.49,2.48,2.48,0,0,0-.28,1c0,.3,0,.49,0,.87s-.17,1.15-.18,1.9a2.21,2.21,0,0,0,.06.6,1.2,1.2,0,0,0,.31.57.88.88,0,0,0-.25.18,2.79,2.79,0,0,0-.66,1.31c-.12.38-.3.63-.39.9-3.11,9.43-3,12.56-5.29,16.35a11.3,11.3,0,0,1,.06-2.34,22.16,22.16,0,0,0,.11-3.78,28.94,28.94,0,0,1-.11-3.6,25.06,25.06,0,0,0,.23-4.12c0-1.35-.12-2.67-.12-4s-.1-2.63-.1-3.84a12.27,12.27,0,0,0-.67-3.43,7,7,0,0,0-1.65-3,2.07,2.07,0,0,1-.38-.66,3.52,3.52,0,0,0-.7-1.21,8.28,8.28,0,0,1-.46-.71,3,3,0,0,0-.84-1.14,10.79,10.79,0,0,0-1.88-1.4A9.52,9.52,0,0,0,384,71.1a1.3,1.3,0,0,1-.31-.11l3.61-1.68a.89.89,0,0,0,.45-1.18.87.87,0,0,0-1.16-.45c-.75.34-2.85,1.35-5.56,2.58a15.13,15.13,0,0,0-1.92-.18,9.75,9.75,0,0,1-2.41-.29,6.55,6.55,0,0,0-1.54-.17,9.79,9.79,0,0,0-2-4.18,3.18,3.18,0,0,0-2.25-1l-.17,0a5.78,5.78,0,0,0-3.08,1.37c-2.32,1.76-5.44,1.91-7.87,3a4.34,4.34,0,0,0-2.69,2.9c-.36,1.47,0,3.3,1,5.88a2,2,0,0,0,.94,1,3,3,0,0,0,.37.16l-.06.27c-.25,1.26-.5,2.46-.76,3.75a21.54,21.54,0,0,0-.55,4,25.1,25.1,0,0,0,0,4.34,25.11,25.11,0,0,1,.21,4c0,1.4-.11,2.79-.11,4.29s.11,2.81.11,4.19v.06c-2.9-3.5-5.41-8.74-8.38-12.76a2.74,2.74,0,0,1-.37-.89,2.79,2.79,0,0,0-.66-1.31,1.15,1.15,0,0,0-.26-.19,1.25,1.25,0,0,0,.31-.57,2.6,2.6,0,0,0,.06-.6c0-.74-.17-1.65-.17-1.91s0-.56,0-.87a2.4,2.4,0,0,0-.28-1,.88.88,0,0,0-.86-.5.89.89,0,0,0-.71,1.3c.11.22.09.16.09.24s0,.35,0,.81a7.54,7.54,0,0,0,.06.81c-.41-.31-.87-.64-1.3-.92-.18-.12-.35-.23-.51-.32a1.15,1.15,0,0,0-.52-.23.74.74,0,0,0-.39,0,1.08,1.08,0,0,0-.68.57.88.88,0,0,0,0,.63,1,1,0,0,0,.11.23,3.1,3.1,0,0,0,.44.53l.31.29a6.61,6.61,0,0,0-1.34-.51,1.27,1.27,0,0,0-.45,0,1.09,1.09,0,0,0-.77.61,1,1,0,0,0,0,.79,2,2,0,0,0,.22.36.89.89,0,0,0,1.19.23,3.81,3.81,0,0,1,.44.17c.5.21,1.09.48,1.67.69a4.84,4.84,0,0,0,1.73.4h.17a1,1,0,0,0,.17.24,2.16,2.16,0,0,1,.23.57,4.19,4.19,0,0,0,.65,1.44c3.19,4.31,5.91,10.52,9.78,14.3v1.29c0,1.41.11,2.8.11,4.08v3.41c0,1.46.33,2.69.33,3.85,0,.71.11,3,.22,5.43.09,1.68.14,3.1.18,4a.46.46,0,0,0-.08.13.89.89,0,0,0,0,.89.67.67,0,0,0,.14.19.87.87,0,0,0,1.3.6.92.92,0,0,0,.33-.35c1.21,0,2.75-.1,3.89-.1l1,0a1.21,1.21,0,0,0,0,.19c0,7.19-.1,15.77,1,22.8a16.64,16.64,0,0,1,.25,2.7,1.11,1.11,0,0,0,0,.17l0-.06s0,.08-.09.2a4.53,4.53,0,0,1-.59.75,19,19,0,0,1-2.22,2c-.85.66-1.72,1.29-2.39,1.75l-.84.55-.1.08H354.9c-1.9,0-4.15-.19-6.4-.2h-1a20.18,20.18,0,0,0-4.46.51c-2.29.57-5.28.26-8,.26-1.9,0-3.8.13-5.68.22-.48-.48-1-1-1.39-1.47-.74-.85-1.66-1.82-2.48-2.73a20.66,20.66,0,0,1-1.37-1.66c-.18-1.78-.44-3.56-.73-5-.41-2-1-5.42-1.42-8.14-.2-1.3-.37-2.43-.48-3.19l3.11,0,3.71,0s.69.1,1.29.21c.29.06.6.09.89.13a2.16,2.16,0,0,0,.9,0,.87.87,0,0,0,.64-.63.94.94,0,0,0-.06-.68s0-.07,0-.12c0-.22-.07-.51-.11-.88l-.33-2.68c-.11-1-.23-1.94-.32-2.67,0-.37-.08-.68-.11-.9s0-.19,0-.24v0c0-.67.11-1.27.09-2.14,0,0,0,0,0,0-.16-3.64.08-5.49-.23-9.19h0c0-.79,0-3.12,0-4.3,5.15,1.42,12.1.85,16.6-4.64.36-.45.67-1,1-1.42a9.26,9.26,0,0,1,.61-.77.85.85,0,0,0,.25-.21,1.29,1.29,0,0,0,.46.47,2.12,2.12,0,0,0,.54.22c.72.19,1.64.25,1.89.32s.51.18.8.25a2.33,2.33,0,0,0,1,0,.9.9,0,0,0,.69-1.06.88.88,0,0,0-1-.71c-.24,0-.19,0-.27,0s-.33-.11-.77-.23a6.71,6.71,0,0,0-.78-.15c.41-.33.83-.69,1.22-1l.43-.41a1.59,1.59,0,0,0,.37-.48.88.88,0,0,0,.1-.37,1.11,1.11,0,0,0-.35-.84.84.84,0,0,0-.6-.17,1.08,1.08,0,0,0-.26,0,2.53,2.53,0,0,0-.62.3c-.09,0-.23.16-.34.23a7.39,7.39,0,0,0,.82-1.21,1.19,1.19,0,0,0,.14-.43,1.16,1.16,0,0,0-.39-.94.87.87,0,0,0-.45-.18,1,1,0,0,0-.31,0,2.11,2.11,0,0,0-.4.11.92.92,0,0,0-.52,1.12c-.11.16-.13.2-.28.39-.34.44-.74,1-1.09,1.48a5.22,5.22,0,0,0-.84,1.62l0,.17a1.08,1.08,0,0,0-.28.11,3.75,3.75,0,0,0-1.19,1.33c-.32.48-.63,1-.86,1.26-4.08,5-10.57,5.36-15.22,3.93,0-.75.05-1.53,0-2.34a12.75,12.75,0,0,0-.07-3.4,13.4,13.4,0,0,1-.26-3.09c0-1.35-.15-2.5-.17-3.69s-.17-2.68-.18-3.83a15.74,15.74,0,0,0-.33-3.53,12.36,12.36,0,0,0-1-2.72A5.4,5.4,0,0,0,328,88.92a10.31,10.31,0,0,0-1.14-1.51,11.18,11.18,0,0,0-2-1.77l-.72-.51h.09c1.28,0,3,1.07,4,2a7.23,7.23,0,0,1,2.3,3.15c.2.71.18,1.13.41,1.73a3.7,3.7,0,0,0,1.56,1.66,3.83,3.83,0,0,0,4.89-.35c1.7-1.61,1.89-4.29,1.3-6.36a2.91,2.91,0,0,0-2.05-2,3.77,3.77,0,0,0-2.53.28,2.43,2.43,0,0,0-1.33,2.13,4.09,4.09,0,0,0,.54,2,1.62,1.62,0,0,0,.75.63l.24.09s0,0,0,0a.82.82,0,0,0,1.13-.32.87.87,0,0,0-.31-1.17,1.16,1.16,0,0,0-.4-.18,2.35,2.35,0,0,1-.28-1c0-.34,0-.47.36-.62a2.26,2.26,0,0,1,1.42-.17,1.06,1.06,0,0,1,.85.85c.43,1.54.17,3.63-.84,4.59a2,2,0,0,1-2.84.19c-.73-.49-.85-.66-.92-.87s-.11-.72-.36-1.58a8.62,8.62,0,0,0-2.81-3.94c-1.2-1.08-3.05-2.49-5.15-2.47-.75,0-1.79-.1-2.78-.18l-.71,0-.7,0h-.32a3.63,3.63,0,0,0-.94.16.88.88,0,0,0-.39.24,10.19,10.19,0,0,0-1.66-.1c-.38,0-.87-.1-1.44-.16a6.11,6.11,0,0,0-1.14,0,3.66,3.66,0,0,0-.72.14c-.92.25-2,.43-3,.66l-.62.14a8.13,8.13,0,0,0-3.18,1.36,11.23,11.23,0,0,1-1.25.71,4.16,4.16,0,0,0-1.62,1.28,21.8,21.8,0,0,0-2.26,3.36c-.07.17-.16.34-.24.51a15.74,15.74,0,0,0-1,3.27c-.05.25-.23.7-.4,1.19a4.64,4.64,0,0,0-.34,1.59c0,.85,0,1.69.05,2.54v.37l-.29.08c-.78.21-1.56.46-1.93.57a.91.91,0,0,0-.6,1.13.88.88,0,0,0,1.09.63c.4-.12,1.09-.35,1.76-.54,0,.24,0,.46,0,.69,0,1,0,2,0,2.94l0,2.29c0,1,.14,1.85.15,2.67s0,1.88,0,2.81c0,.52,0,1,.08,1.51-3.34,1.15-6.67,3.49-9.9,5.68-3-4-6-9.34-9.62-12.39a1,1,0,0,0-.42-.2c-.06-.83-.1-1.67-.19-2.53-.14-1.51-.37-2.9-.51-4.33a28.15,28.15,0,0,1-.21-4.14,10.3,10.3,0,0,0-.05-1.57l1.39-.34,1.73-.43.85-.23a.84.84,0,0,0,.61-1,.86.86,0,0,0-1-.7l-.14,0c.07,0-.34.09-.8.21l-1.71.43-1.21.3c-.06-.38-.09-.74-.13-1.08a21.33,21.33,0,0,0-.91-4c-.36-1.28-.71-2.48-1.06-3.73a9.42,9.42,0,0,0-1.59-3,.93.93,0,0,0,.22-.3.89.89,0,0,0-.17-.87,7.27,7.27,0,0,0-4.25-2.67l-.69-.09a8.16,8.16,0,0,0-2.47-.57l-.06,0q.84-.12,1.68-.21a8.46,8.46,0,0,1,2.87.6c1.13.4,2.21.9,2.85,1.17a.86.86,0,0,0,.68-1.59c-.6-.26-1.74-.77-3-1.2a10.73,10.73,0,0,0-3-.71,2.81,2.81,0,0,0-.41,0h-.21c-3.52.38-6.75,1.26-10.06,1.61H259c-5-5.3-12.74-8.64-20.8-10.62A83.85,83.85,0,0,0,219,64.32a.93.93,0,0,0-.65-.13,1,1,0,0,0-.33.13c-1.65,0-3.22.06-4.67.18a3.34,3.34,0,0,0-.36-.88h0l0-.06,0,0a3.16,3.16,0,0,0-2.59-1.74H210m6.53,3.94a1.09,1.09,0,0,1,.56.09c.4.8-.61,1.69-1.33,2-3.42,1.38-7.36,2.51-11,1.33-.89-1.09,1.41-1.28,2.1-1.73A22.37,22.37,0,0,1,216,65.75c.19,0,.38,0,.57,0m1.7,1.31a56.68,56.68,0,0,1,13.4,5.32c7,3.89,13.21,9.3,16.23,15.43a6.87,6.87,0,0,0-.74.5c-.75.6-1.35,1.26-1.95,1.81-2.11,2-6,3.42-9.46,4.15-2.3.49-4.07.23-6.2.48-2-6.32-4.12-12.75-7-18.22A35.06,35.06,0,0,0,217,68.46a3.14,3.14,0,0,0,.68-.63c.2-.24.41-.51.6-.78m-14.08,3.07a9.75,9.75,0,0,0,1.93.49,34.45,34.45,0,0,0-1.86,9.83c-.37,6.16.31,12.9,1.08,19.48-2,.65-3.57,1.59-5.87,2.08-3.41.73-7.58,1-10.32.1-.77-.27-1.59-.61-2.52-.85a5.68,5.68,0,0,0-.88-.17c.25-6.83,3.67-14.28,8.49-20.7a56.81,56.81,0,0,1,9.95-10.26M419.26,82l.74,0a15,15,0,0,1,2.5.34l-.25,0c-.95.25-2.07.44-3.15.65l-.63.13a8.42,8.42,0,0,0-3.3,1.32,10.89,10.89,0,0,1-1.31.7,4.36,4.36,0,0,0-1.67,1.28,21.22,21.22,0,0,0-2.39,3.35l-.26.5c-.12.24-.22.47-.31.7-.08-.37-.15-.72-.2-1a4,4,0,0,1,.72-3.5A11.82,11.82,0,0,1,419.26,82m-49.34,1a1.05,1.05,0,0,1,.43.11,1.14,1.14,0,0,1,.59.74,2.55,2.55,0,0,1,.12,1.14,1.3,1.3,0,0,1-.43.8,1.39,1.39,0,0,1-.9.29,1.71,1.71,0,0,1-1-.27,1.26,1.26,0,0,1-.51-.93,1.8,1.8,0,0,1,.43-1.29.73.73,0,0,1,.35-.28,2.29,2.29,0,0,1,.61-.27,1.39,1.39,0,0,1,.32,0m10.65,0a1.39,1.39,0,0,1,.32,0,2.49,2.49,0,0,1,.61.27.69.69,0,0,1,.33.28,1.84,1.84,0,0,1,.45,1.29,1.31,1.31,0,0,1-.52.93,1.71,1.71,0,0,1-1,.27,1.36,1.36,0,0,1-.89-.29,1.3,1.3,0,0,1-.43-.8,2.43,2.43,0,0,1,.11-1.14,1.1,1.1,0,0,1,.6-.74,1.05,1.05,0,0,1,.43-.11M463,86.38a15,15,0,0,1,6.62,1.52c.7,1.07-.14,2.42-.72,3.35-.72,1.18-2.1,1.58-3.26,2.11a7.07,7.07,0,0,1-6.35-.32,8.15,8.15,0,0,1-1.84-5.12c.31-1.14,1.9-.89,2.8-1.27a15,15,0,0,1,2.75-.27m17.52,0a16.7,16.7,0,0,1,5.32,1c.63,1.33-.11,2.89-.63,4.14a3.21,3.21,0,0,1-2.3,2.16c-2.61.89-5.41-.16-7.64-1.61-.9-1-1.84-2.37-1.57-3.81.92-1,2.5-1.12,3.75-1.51a14.42,14.42,0,0,1,3.07-.32m-105.45.1a.8.8,0,0,1,.77.76c0,.48.09,1.79.13,3.07,0,.64,0,1.26,0,1.73s0,.71,0,.85a.82.82,0,0,1-.4.69.79.79,0,0,1-.81,0,.78.78,0,0,1-.38-.69s0-.35,0-.82,0-1.09,0-1.73c0-1.27-.09-2.67-.12-3a.86.86,0,0,1,.22-.62.81.81,0,0,1,.59-.26M136.7,90.56a16.08,16.08,0,0,1,6.87,1.54c.73,1.06-.13,2.4-.74,3.33-.75,1.18-2.17,1.58-3.38,2.11a7.65,7.65,0,0,1-6.62-.32,8,8,0,0,1-1.9-5.12c.32-1.14,2-.89,2.9-1.27a16.4,16.4,0,0,1,2.87-.27m18.22,0a18,18,0,0,1,5.53,1c.66,1.33-.11,2.87-.66,4.12a3.28,3.28,0,0,1-2.39,2.17c-2.72.9-5.63-.17-8-1.62-.94-1-1.9-2.36-1.62-3.81,1-1,2.59-1.12,3.89-1.51a15.58,15.58,0,0,1,3.2-.32m113.41.24a1.05,1.05,0,0,1,.32,0,1.81,1.81,0,0,1,.6.2.76.76,0,0,1,.37.26,2,2,0,0,1,.53,1.22,1.31,1.31,0,0,1-.39.94,1.61,1.61,0,0,1-.95.39,1.37,1.37,0,0,1-.93-.23,1.26,1.26,0,0,1-.46-.73,2.84,2.84,0,0,1,0-1.13,1.09,1.09,0,0,1,.48-.78,1.14,1.14,0,0,1,.43-.16m203.61.7a.73.73,0,0,1,.74.69c0,.45.09,1.69.13,2.9,0,.61,0,1.19,0,1.64s0,.66,0,.78a.75.75,0,0,1-.37.68.72.72,0,0,1-.76,0,.75.75,0,0,1-.37-.68s0-.31,0-.75,0-1,0-1.64c-.05-1.2-.09-2.54-.11-2.82a.71.71,0,0,1,.75-.82m-368.68.29a1.2,1.2,0,0,1,.36,0,1.82,1.82,0,0,1,.57.24.74.74,0,0,1,.35.28,2,2,0,0,1,.42,1.27,1.21,1.21,0,0,1-.45.89,1.63,1.63,0,0,1-1,.31,1.36,1.36,0,0,1-.91-.29,1.31,1.31,0,0,1-.4-.78,2.7,2.7,0,0,1,.09-1.11,1.13,1.13,0,0,1,.54-.75,1.05,1.05,0,0,1,.43-.11m311.47,1.28a15,15,0,0,1,6.61,1.53c.69,1.06-.13,2.42-.71,3.35-.72,1.17-2.09,1.57-3.26,2.11a7.13,7.13,0,0,1-6.35-.32,8.2,8.2,0,0,1-1.84-5.13c.31-1.13,1.9-.89,2.81-1.26a14.89,14.89,0,0,1,2.74-.28m17.52,0a16.5,16.5,0,0,1,5.33,1c.62,1.33-.11,2.88-.64,4.13a3.19,3.19,0,0,1-2.3,2.16c-2.61.9-5.42-.16-7.65-1.6-.91-1-1.83-2.37-1.56-3.81.92-1,2.48-1.12,3.73-1.51a14.68,14.68,0,0,1,3.09-.33m-48.36.17.1,0a.77.77,0,0,1,.62.52.8.8,0,0,1-.17.8,10.77,10.77,0,0,1-2,2.16,12.22,12.22,0,0,1-6.68,2.35,14.15,14.15,0,0,1-7.53-2.49,4.17,4.17,0,0,1-1.14-1.25c-.15-.21-.28-.4-.37-.55l-.14-.23a.79.79,0,0,1,.6-1.31.75.75,0,0,1,.62.29,2.39,2.39,0,0,1,.26.39c.09.14.2.33.32.51a4.12,4.12,0,0,0,.7.8,12.88,12.88,0,0,0,6.68,2.24,11,11,0,0,0,5.79-2.06,12.43,12.43,0,0,0,1.72-1.89.82.82,0,0,1,.66-.3m60.7.83a1.08,1.08,0,0,0,.18,0,.75.75,0,0,0,.15,0,.69.69,0,0,0,.16.22,2.71,2.71,0,0,1,.23.56,4.24,4.24,0,0,0,.61,1.34c.83,1.1,1.61,2.33,2.4,3.61-.91,8-5.08,11.06-8.35,12.34,0-.56.06-1.12.06-1.71a12.75,12.75,0,0,0,0-3.43,12.69,12.69,0,0,1-.22-3.11c0-1.36-.12-2.52-.12-3.72,0-.73,0-1.47-.06-2.18a3.54,3.54,0,0,0,.91.11,4.83,4.83,0,0,0,1.51-.25,2.68,2.68,0,0,0,1.17-.66,4.94,4.94,0,0,0,1.36-2.62,2.74,2.74,0,0,0,0-.5M145.86,95.42a.75.75,0,0,1,.72.72c0,.46.08,1.71.11,2.93,0,.61,0,1.21.05,1.65s0,.68,0,.81a.8.8,0,0,1-.35.72.71.71,0,0,1-.77,0,.8.8,0,0,1-.35-.72s0-.33,0-.78,0-1,0-1.63c0-1.21-.08-2.56-.1-2.84a.81.81,0,0,1,.2-.6.72.72,0,0,1,.54-.26M307.69,97a1,1,0,0,1,.38.08,1.05,1.05,0,0,1,.52.64,2.21,2.21,0,0,1,.11,1,1.13,1.13,0,0,1-.36.7,1.2,1.2,0,0,1-.75.26,1.43,1.43,0,0,1-.88-.22,1.12,1.12,0,0,1-.45-.8,1.63,1.63,0,0,1,.36-1.14.62.62,0,0,1,.3-.23,1.63,1.63,0,0,1,.5-.24,1,1,0,0,1,.27,0m93.63.42h.22a4,4,0,0,1,1.48.46.83.83,0,0,1,.39.83,1,1,0,0,1-.45.68,1.21,1.21,0,0,0-.34-.06.9.9,0,0,0-.91.79.91.91,0,0,0,.66,1h0a.21.21,0,0,0,.11.06,1.34,1.34,0,0,0,.66.08,2.27,2.27,0,0,0,.57-.2,2.77,2.77,0,0,0,1.47-2.12,2.62,2.62,0,0,0-.16-1.26,8.54,8.54,0,0,0,1.24,0,4.87,4.87,0,0,0,1.37-.24v.75a3,3,0,0,0-.75.85c-.4.71-.57,1.43-.84,2a2.55,2.55,0,0,1-1.37,1.41,4.94,4.94,0,0,1-2.61,0,2.34,2.34,0,0,1-1.85-1.48,3.86,3.86,0,0,1,.15-3,.74.74,0,0,1,.42-.46,1.14,1.14,0,0,1,.52-.11m22.15.37a.74.74,0,0,1,.74,1s0,.13,0,.29,0,.52.08.82c.08.61.22,1.25.28,1.62a.74.74,0,1,1-1.45.25c-.05-.32-.19-1-.28-1.67,0-.33-.08-.66-.09-1a1.56,1.56,0,0,1,.13-.92.7.7,0,0,1,.61-.43m56.84.07.09,0a.74.74,0,0,1,.6.49.75.75,0,0,1-.17.76c-.25.29-.56.73-.94,1.15,0,0,0,.06,0,.08s-.11.32-.2.56a2.46,2.46,0,0,1-.32.72c-.74,1.07-1.76,3.09-3.5,3.94-1.13.54-2.5,1.53-4.23,1.18a9,9,0,0,1-2.93-1.17,4.08,4.08,0,0,1-1.44-1.29,12.52,12.52,0,0,0-.89-1.25c-.29-.33-.71-.87-1.1-1.42a4.47,4.47,0,0,1-.86-1.64s0,0,0-.06l-.36-.52c-.09-.15-.19-.28-.12-.21a.74.74,0,0,1,.55-1.24.73.73,0,0,1,.6.27,2,2,0,0,1,.25.37c.09.14.18.31.3.48a3.67,3.67,0,0,0,.67.76,12.08,12.08,0,0,0,6.32,2.08,10.46,10.46,0,0,0,5.47-2,11.73,11.73,0,0,0,1.64-1.8.76.76,0,0,1,.62-.3m-351.52.25a.85.85,0,0,0,.77.11,9.25,9.25,0,0,0,.11,1.73,23.77,23.77,0,0,1,.2,3.84c0,.8,0,1.59-.06,2.4a41.78,41.78,0,0,1-3.24-7.31l.23-.06c.56-.18,1.14-.4,1.62-.59.18-.07.21-.07.37-.12m117.47.37c.06.91.11,1.85.2,2.78a26.81,26.81,0,0,0,.6,4.11,31.65,31.65,0,0,1,.25,3.68,24,24,0,0,0,.48,3.79c0,.14.05.27.07.4-3-3.19-5.85-8.24-9-12.06a15.91,15.91,0,0,0,1.67-.22,13.41,13.41,0,0,0,5.71-2.48m-16.68.16a13.08,13.08,0,0,0,2.73,1.61,12.07,12.07,0,0,0,4.57,1,3.37,3.37,0,0,0,.49.81c3.45,4.15,6.63,10.35,10.71,13.77h0c0,.44,0,.89.09,1.36.12,1.3.26,2.6.39,3.9s.29,2,.4,3.12c0,.2,0,.4.07.58a.9.9,0,0,0,.11.56,12,12,0,0,1,.26,1.4c0,.3.14,1,.3,2.13s.37,2.54.58,4,.43,2.86.59,4,.27,2,.28,2.08a.84.84,0,0,0,.49.71.88.88,0,0,0,.71,0c.22,0,.46,0,.68-.06,1.28-.14,2.42-.37,3.61-.5.33,0,.66-.08,1-.14a.7.7,0,0,1,0,.14c-.1.39-.23.91-.37,1.53-.26,1.24-.59,2.9-.92,4.61s-.68,3.48-1,4.94a28.3,28.3,0,0,1-.76,3c-1.11,2.91-1.1,5.33-1.94,7.76l-.31.11c-.43.13-1,.29-1.62.45l-1.78.46-.23.06-15.54.08-7.59-34,.12-.08c.5-.31,1-.68,1.41-1,.19-.14.23-.15.38-.25a.84.84,0,0,0,1-.46,1.24,1.24,0,0,0,.13-.37.86.86,0,0,0-.13-.73,1,1,0,0,0-.85-.4,1,1,0,0,0-.4.11,6.33,6.33,0,0,0-1.15.74c.06-.1.17-.24.23-.32a2.48,2.48,0,0,0,.29-.59.74.74,0,0,0,.06-.23.88.88,0,0,0-.15-.59,1,1,0,0,0-.74-.37.74.74,0,0,0-.36.1,1.15,1.15,0,0,0-.45.32c-.09.08-.19.19-.29.29l-1-4.61h-.27c.22,0,.43-.07.65-.12a2.3,2.3,0,0,0,1-.61,11,11,0,0,0,1-1,5.84,5.84,0,0,0,.88-1.13,2.66,2.66,0,0,0,.3-.66,1.45,1.45,0,0,0-.1-1,7.59,7.59,0,0,0-1.39-2.11,4,4,0,0,0-2.9-1.17,7.12,7.12,0,0,0-.94.05l-1.06-4.74a10.72,10.72,0,0,0,6.91-5.47l0-.07a1,1,0,0,0,.08-.11,22.66,22.66,0,0,0,1.62-2.91m-104.68.6a37.51,37.51,0,0,0,4.2,8.9.82.82,0,0,0,.68.37c0,1.15.09,2.23.09,3.34v3.78c0,1.34.11,2.67.11,3.89v3.24c0,1.4.31,2.58.31,3.67,0,.68.1,2.92.21,5.19.06,1.13.1,2.24.14,3.13,0,.26,0,.45,0,.66a1.34,1.34,0,0,0-.11.14.94.94,0,0,0,0,.89,1.2,1.2,0,0,0,.17.21.84.84,0,0,0,.81.64.78.78,0,0,0,.7-.44c1.16,0,2.63-.1,3.72-.1.91,0,1.86.08,2.81.16,0,5.52,0,12.94,1,18.28a11.79,11.79,0,0,1,.21,2.11v0s0,0,0,.08a3.6,3.6,0,0,1-.57.6,17.36,17.36,0,0,1-2.13,1.57c-.81.53-1.66,1-2.3,1.39l-.34.19c-2.57,0-5.11.29-7.62.29s-9.36-.46-12.26-.46c-1.7,0-3.42.14-5.06.21l-.68-.44a18.15,18.15,0,0,1-2.12-1.62,4.7,4.7,0,0,1-.58-.63c-.06-.1-.06-.12-.06-.11a.27.27,0,0,0,0-.09,13.81,13.81,0,0,1,.2-2.29c.94-5.75.56-11.57.46-17.51.32,0,.61,0,.92,0,1,0,2.45,0,3.58,0a.85.85,0,0,0,.35.38.87.87,0,0,0,.88,0,4.51,4.51,0,0,0,.62-1.21.87.87,0,0,0-.19-.55c0-1,.06-2.43.11-4.17.07-2.41.15-4.81.14-5.51,0-1.2.27-2.45.25-3.91,0-1.16,0-2.32-.07-3.47,0-1.32.07-2.72.05-4.14,0-.18,0-.36,0-.54l0,0c4-3.52,7-9.8,10.34-14a4.45,4.45,0,0,0,.69-1.39,2.58,2.58,0,0,1,.26-.58l.05-.06m29.18,2.65h.17l.09,0a.77.77,0,0,1,.58.52.81.81,0,0,1-.18.77c-.24.29-.55.71-.92,1.13a.84.84,0,0,1,0,.31c0,.14-.11.46-.19.78a4.45,4.45,0,0,1-.3.94c-1.54,3.12-3.69,5.68-6.21,6.47a4.52,4.52,0,0,1-3.86-.51,9.15,9.15,0,0,1-3.1-4.09s0-.09-.06-.12c-.28-.45-.64-1.12-1-1.84a7.77,7.77,0,0,1-.82-2.21s0-.07,0-.1l0,0c-.13-.2-.26-.39-.35-.54l-.14-.23a.82.82,0,0,1-.11-.8.71.71,0,0,1,.65-.46.69.69,0,0,1,.58.27,3.06,3.06,0,0,1,.27.37c.09.14.19.31.31.48s0,.06.06.1a.84.84,0,0,1,.41.49,1.42,1.42,0,0,0,.19.18,12.12,12.12,0,0,0,6.36,2.13,10.54,10.54,0,0,0,5.52-2,11.27,11.27,0,0,0,1.65-1.8.75.75,0,0,1,.45-.28m295.59.17a36.75,36.75,0,0,0,5.81,7.87.82.82,0,0,0,.6.21c0,.49,0,1,0,1.47,0,1.32.12,2.62.13,3.84s0,2.15,0,3.22c0,1.38.32,2.54.33,3.65,0,.66.11,2.88.23,5.13.08,1.6.14,2.93.18,3.83a.86.86,0,0,0,.07,1.11.83.83,0,0,0,1.55.23c1.15,0,2.61-.1,3.69-.11.88,0,1.79.07,2.72.14,0,6.86,0,15,1.08,21.63a17.86,17.86,0,0,1,.25,2.61.34.34,0,0,0,0,.1.84.84,0,0,1-.08.2,4.19,4.19,0,0,1-.56.73,18.6,18.6,0,0,1-2.1,1.91c-.8.64-1.62,1.24-2.25,1.69l-.6.41c-2.17.08-4.34.2-6.48.2H442.65c-3.11,0-2.22-.14-5.34-.14-.68,0-1.4,0-2.14.08-.09-.51-.17-1-.2-1.22-.11-.66-.27-1.4-.45-2.16,1,.54,2,1.07,2.75,1.53a23.7,23.7,0,0,0,3,1.46.91.91,0,0,0,1.28-.95A.93.93,0,0,0,441,160a23.25,23.25,0,0,1-2.8-1.36c-.87-.52-1.92-1.06-2.85-1.59a16.6,16.6,0,0,1-1.52-1c-.5-1.69-1.49-5-2-6.34-.78-1.84-2-5-2.89-7.54-.46-1.27-.86-2.4-1.11-3.12,0,0,0,0,0-.09l5.2,0h3.83l1.31.22c.3.06.62.12.91.16a2.27,2.27,0,0,0,.93,0,.92.92,0,0,0,.69-.63.89.89,0,0,0-.06-.68s0-.07,0-.12c0-.23-.05-.55-.09-.91-.08-.74-.19-1.71-.29-2.69s-.21-1.95-.3-2.68c0-.37-.08-.68-.11-.9a1.86,1.86,0,0,0,0-.26s0,0,0,0c0-.68.13-1.28.13-2.16v0c-.1-3.66.18-5.51-.09-9.24,0-.87.11-3.71.11-4.69,0-.1,0-.21,0-.31s0,0,0,0c3.48-1.19,8.19-4.41,9.72-11.94m-172.1.09c.11,1,.24,1.92.36,2.86a.94.94,0,0,0-.3.15,9.72,9.72,0,0,1-4.89,1.46,7.56,7.56,0,0,1-3-1.14,3,3,0,0,1-1.16-1.08c-.33-.45-.68-1-1.21-1.65a12.17,12.17,0,0,0,5.87,1,7.61,7.61,0,0,0,4.35-1.58m154.3.29a.74.74,0,0,1,.52,1.27,1.08,1.08,0,0,1-.23.22c-.45.34-.81.57-1.13.8v0a6.41,6.41,0,0,1-1.11,2,8,8,0,0,1-1.65,1.76,6.08,6.08,0,0,1-4.72,1.3,11,11,0,0,1-4.43-1.84,6.52,6.52,0,0,1-1.78-1.77c-.23-.3-.45-.58-.62-.76a2.46,2.46,0,0,0-.21-.18.71.71,0,0,1-.49-.45,4.07,4.07,0,0,0-.59-.35.73.73,0,0,1-.32-1,.72.72,0,0,1,1-.32c.88.44,1.81,1.21,2.58,1.52a23.43,23.43,0,0,0,2.38.44.81.81,0,0,0,.57-.11,2.69,2.69,0,0,0,.6-.48,1.17,1.17,0,0,1,.94-.34,1.19,1.19,0,0,1,.68.37,4.17,4.17,0,0,1,.43.49.93.93,0,0,0,.16-.11l.44-.36a1.92,1.92,0,0,1,.48-.35c.4-.19.47-.07.53-.06l.12,0,.11.06.22.13.57.35.6.37.24.12a2,2,0,0,0,.65-.27,6.84,6.84,0,0,0,.95-.77,14,14,0,0,1,1.92-1.47l.1-.09a.77.77,0,0,1,.51-.24m-330.54,1.15a12.51,12.51,0,0,0,5.82,1.45,7.58,7.58,0,0,0,4.49-1.21c0,1,.08,1.93.11,2.87a1.11,1.11,0,0,0-.29.14,10,10,0,0,1-5,1,8,8,0,0,1-2.93-1.39,3.13,3.13,0,0,1-1.09-1.16,19.33,19.33,0,0,0-1.08-1.74m201.77,2.82.38.37a3,3,0,0,0,.7.54,1.23,1.23,0,0,0,.58.14,1.07,1.07,0,0,0,.79-.4,3.81,3.81,0,0,0,.26-.44,4.3,4.3,0,0,0,.59.5,2.06,2.06,0,0,0,1.73.37c.3-.08.82-.07,1.43-.19a2.74,2.74,0,0,1-.55.7c-1.5,1.08-1.9,1.6-3.57,1.87-1.33.21-2.22-.26-3.58-1.46a.77.77,0,0,0-.48-.2v-.38l0,0c0-.14,0-.29,0-.43a.74.74,0,0,0,.36,0,1.25,1.25,0,0,0,.35-.17l.28-.2q.29-.21.57-.45l.22-.17m-23,4.18c2.88,2.83,5.54,7.44,8.43,11.25-1.22.8-2.42,1.56-3.6,2.2a3.65,3.65,0,0,0-.71.53,6.71,6.71,0,0,0-.47.51c-.06.06-.12.1-.16.15a5.33,5.33,0,0,0-1.6-.36l-.9-.06c0-1,.08-2,0-3.17s-.23-2.32-.34-3.48-.16-2.71-.29-4.13l-.33-3.44m127.66,2.79c0,.82.13,1.59.12,2.27,0,.9,0,1.79,0,2.69s.12,1.86.12,2.69v3l-.12-.14c-1.59-1.75-4-3.28-5-4.49-.69-.83-.78-1.32-.71-1.68a2.57,2.57,0,0,1,1-1.28c1.07-.84,2.86-1.75,4.55-3.07M300,117.05l0,2.22c0,1,.14,1.83.15,2.67s0,1.69.05,2.54l0,2.44,0,2.16c0,.06,0,.92-.06,2s-.09,2.37-.15,3.66-.14,2.53-.19,3.39c0,.26,0,.4,0,.57l-.23.2a1,1,0,0,0-.05.51c-3.43,2.49-7.56,6.44-11.49,9.48a.81.81,0,0,0-.31.06c.05,0-.62.09-1.39.09s-1.71,0-2.65-.09c-1.89-.1-3.72-.27-4.23-.3a.9.9,0,0,0-.94.87.88.88,0,0,0,.83.95c.39,0,2.32.2,4.25.3.59,0,1.18.06,1.74.07a14.2,14.2,0,0,0-2.75,2.2.94.94,0,0,0,.43,1.56.9.9,0,0,0,.87-.31,14.86,14.86,0,0,1,2.77-2.16c5-3.37,10.42-8.82,14.36-11.56a1,1,0,0,0,.34-.45l1.79,0,3.45,0a28.73,28.73,0,0,0,5.73-.48c1.62-.36,3.84.1,5.89.07h1.54a.45.45,0,0,0,0,.11c.11.78.29,2,.51,3.34.43,2.74,1,6.13,1.42,8.23.22,1.09.44,2.47.6,3.89a.28.28,0,0,0-.06.09,1,1,0,0,0,0,.91l.22.37c.13,1.49.21,3.62.18,4.75a24.3,24.3,0,0,0-3.67-.34c-2.42,0-4.85.28-7.08.28-3,0-5.78.57-8.51.57h-7.93c-2.16,0-4.36.72-6,.31a20.39,20.39,0,0,0-5-.31H282.3l-.48-.24c-.67-.32-1.54-.75-2.38-1.23a18.21,18.21,0,0,1-2.24-1.45,4.23,4.23,0,0,1-.6-.58,1,1,0,0,1-.09-.13v-.06a13.72,13.72,0,0,1,0-2.31c.46-5.83-.24-12.73-.82-18.65.31-.05.6-.1.9-.13,1-.11,2.42-.19,3.53-.27a1,1,0,0,0,.39.35.86.86,0,0,0,.86-.09.82.82,0,0,0,.36-.68,1,1,0,0,0,.11-.17.88.88,0,0,0-.1-.87l-.07-.09c-.05-.82-.13-2.15-.21-3.57a.9.9,0,0,0,.79-.16,2.72,2.72,0,0,0,.67-.8c.13-.28.19-.46.35-.81s.64-1,1-1.68a2.53,2.53,0,0,0,.2-.57,1.29,1.29,0,0,0-.05-.71,3.48,3.48,0,0,0,.64-.63,2.7,2.7,0,0,1,.72-.66c1.3-.71,2.6-1.52,3.91-2.38a.35.35,0,0,1,0,.08,2.68,2.68,0,0,1,.45.88,2.86,2.86,0,0,0,.75,1.25.83.83,0,0,0,.32.2,1.08,1.08,0,0,0-.29.66,2.14,2.14,0,0,0,0,.57c.08.73.31,1.62.34,1.91s0,.59.06.88a2.68,2.68,0,0,0,.34.94.86.86,0,1,0,1.5-.86c-.12-.21-.11-.19-.12-.29s0-.36-.07-.82a6.32,6.32,0,0,0-.13-.82c.38.26.79.52,1.17.74.18.11.35.22.51.3a1.28,1.28,0,0,0,.55.18.84.84,0,0,0,.4,0,1,1,0,0,0,.61-.63.82.82,0,0,0-.05-.56.76.76,0,0,0-.13-.21,2.59,2.59,0,0,0-.46-.48l-.41-.37a5.77,5.77,0,0,0,1.31.37,1.06,1.06,0,0,0,.46,0,1.08,1.08,0,0,0,.68-.69.91.91,0,0,0-.09-.71,1.39,1.39,0,0,0-.23-.32.85.85,0,0,0-1.19-.14l-.37-.13c-.48-.17-1.06-.36-1.62-.52a4.42,4.42,0,0,0-1.69-.25l-.1,0a1.12,1.12,0,0,0-.17-.2,2.82,2.82,0,0,1-.28-.59,4.64,4.64,0,0,0-.68-1.29c3.05-2.06,6.05-4.16,8.86-5.23m-82.2,1.31a4.43,4.43,0,0,0,.58.16c.85.18,1.62.52,2.53.79a6.09,6.09,0,0,0,1,.22h-.06l.68,3.07h0a.84.84,0,0,0-.75.65,2.32,2.32,0,0,0-.05,1c.05.28.12.44.2.79s.08,1.11.24,1.8a1.85,1.85,0,0,0,.18.53.92.92,0,0,0,.17.27c-.19.34-.38.71-.59,1.1a17.57,17.57,0,0,1-1.05,1.78A21.71,21.71,0,0,0,219,133.8l-.37.74a6.2,6.2,0,0,1,.08-1.48c.33-1.66-.09-3.14.12-4.2a12.75,12.75,0,0,0,.12-4.29,22.4,22.4,0,0,1-.49-3.38,5.31,5.31,0,0,0-.32-1.82c-.14-.36-.27-.68-.38-1m-17.66,3a1,1,0,0,1,.35.08,1,1,0,0,1,.5.62,2.35,2.35,0,0,1,.09.94,1.1,1.1,0,0,1-.36.65,1.2,1.2,0,0,1-.76.25,1.44,1.44,0,0,1-.83-.22,1.11,1.11,0,0,1-.43-.77,1.52,1.52,0,0,1,.37-1.07.73.73,0,0,1,.29-.23,2.73,2.73,0,0,1,.5-.2,1,1,0,0,1,.28,0m8.82,0a1.08,1.08,0,0,1,.28,0,2.73,2.73,0,0,1,.5.2.8.8,0,0,1,.29.23,1.52,1.52,0,0,1,.37,1.07,1.12,1.12,0,0,1-.44.77,1.45,1.45,0,0,1-.84.22,1.16,1.16,0,0,1-.74-.25A1,1,0,0,1,208,123a2.18,2.18,0,0,1,.09-.94,1,1,0,0,1,.5-.62,1,1,0,0,1,.35-.08M204.47,123a.75.75,0,0,1,.57.19.73.73,0,0,1,.25.56v2.62a.73.73,0,0,1-.74.72.72.72,0,0,1-.73-.72v-2.62a.74.74,0,0,1,.65-.75m6,3.66a.67.67,0,0,1,.59.31.65.65,0,0,1,0,.66s-.08.18-.15.36-.07.18-.13.27a.86.86,0,0,1-.15.22.71.71,0,0,1-.23.42,9.11,9.11,0,0,0-.65.71,9.2,9.2,0,0,0-.65.89,3.85,3.85,0,0,1-2.38,2.18,6.93,6.93,0,0,1-3.47.25,5.85,5.85,0,0,1-2.24-1.09,2.87,2.87,0,0,1-.66-.81c-.19-.31-.37-.64-.54-1a8.38,8.38,0,0,0-.45-.74,2.29,2.29,0,0,1-1.08-1,.64.64,0,0,1,0-.68.66.66,0,0,1,1.17.09l0,0a1.42,1.42,0,0,1,.79.54l.18.08c.57.23,1.3.44,2,.72a10.1,10.1,0,0,0,4.25.14,3.65,3.65,0,0,0,1.44-.62c.51-.32,1-.7,1.43-1l.06-.14c.07-.14.11-.26.19-.42a.67.67,0,0,1,.57-.37m13.26,2h.1L231.26,162l-10.3.05H213.4l-.06-.11a7.11,7.11,0,0,1-.68-1.54c-.27-1.11-.76-3.11-1.12-4.91-.17-.83-.32-1.61-.4-2.23a7.05,7.05,0,0,0,3.87.85,7.42,7.42,0,0,0,3-.53.81.81,0,0,0,.31.3.92.92,0,0,0,.91,0,.89.89,0,0,0,.44-.8,10.73,10.73,0,0,0-.12-1.35l-.28-2.1c-.1-.74-.19-1.48-.26-2,0-.29-.07-.54-.09-.72a1.76,1.76,0,0,0,0-.28,18.6,18.6,0,0,0-.14-2.67,24.51,24.51,0,0,1-.11-3.57c0-.93.08-1.89.11-2.86a14.34,14.34,0,0,0,1.74-3,21.27,21.27,0,0,1,1.68-3,18,18,0,0,0,1.16-2l.45-.82"/><text class="cls-1" transform="translate(288.31 57.9)">STRAND</text><path class="cls-2" d="M57.06,161.66l-.15,0-.62-.48L54.73,160c-.55-.41-1-.82-1.43-1.13-.14-.11-.25-.18-.34-.26-.18-3,.51-5.68.23-9.24,0-.48,0-1.88.09-3.58s.23-3.74.37-5.73.26-3.89.34-5.33c0-.72.07-1.32.08-1.77,0-.23,0-.42,0-.59a1.21,1.21,0,0,0,0-.25c1.48,0,3.23.18,4.76.17,1.22,0,2.41.1,3.7.09h.74a1.2,1.2,0,0,0,.2,0,.83.83,0,0,0,.83-.83c0-.06,0-.9.09-2s.12-2.39.19-3.73.13-2.67.18-3.72.08-1.7.08-2c0-.68.2-1.46.19-2.41s.1-1.8.1-2.89,0-2.43,0-3.65c0-.28,0-.56,0-.83a.8.8,0,0,0,.37-.23c3.76-3.56,6.35-9.62,9.4-13.79A4.09,4.09,0,0,0,75.41,95a3,3,0,0,1,.2-.54.87.87,0,0,0,.16-.23l.17,0a4.86,4.86,0,0,0,1.62-.39c.55-.21,1.1-.46,1.57-.66l.41-.17a.85.85,0,0,0,1.13-.22,1.79,1.79,0,0,0,.19-.34.87.87,0,0,0,0-.74,1,1,0,0,0-.74-.57,1,1,0,0,0-.42,0,7.32,7.32,0,0,0-1.27.46c.09-.09.23-.2.31-.27a2.66,2.66,0,0,0,.4-.5.68.68,0,0,0,.1-.21.72.72,0,0,0,0-.59,1,1,0,0,0-.66-.54.61.61,0,0,0-.35,0,1.16,1.16,0,0,0-.51.23c-.14.08-.31.17-.49.29-.4.27-.8.58-1.18.88a6.93,6.93,0,0,0,0-.77c0-.43,0-.68,0-.76s0,0,.08-.25A.85.85,0,0,0,75.41,88a.88.88,0,0,0-.71.48,2.36,2.36,0,0,0-.25.94c0,.29,0,.47,0,.82s-.15,1.11-.16,1.81a2.25,2.25,0,0,0,.06.55,1.1,1.1,0,0,0,.3.54.67.67,0,0,0-.25.19,2.56,2.56,0,0,0-.61,1.23,2.93,2.93,0,0,1-.36.85c-3,4.11-5.49,9.58-8.5,12.87a7.49,7.49,0,0,1,.07-1.07,21.59,21.59,0,0,0,.1-3.56,26.2,26.2,0,0,1-.13-3.4,24.3,24.3,0,0,0,.19-3.88c0-1.28-.1-2.53-.11-3.75S65,90.09,65,88.94a11.53,11.53,0,0,0-.65-3.21,6.61,6.61,0,0,0-1.56-2.89,2,2,0,0,1-.36-.63,3.08,3.08,0,0,0-.68-1.12s-.22-.33-.41-.67a3.05,3.05,0,0,0-.81-1.08A10.84,10.84,0,0,0,58.72,78l-.08,0a3.78,3.78,0,0,0,1.48-1.79.85.85,0,1,0-1.58-.63,2,2,0,0,1-.93,1.08,3.4,3.4,0,0,1-.92.34l-.2,0a5.15,5.15,0,0,1-.75-.35,2.7,2.7,0,0,0-1.3-.4c-.6,0-1.58-.19-2.57-.19a9.13,9.13,0,0,1-2.26-.27,5.65,5.65,0,0,0-1.48-.16,8.67,8.67,0,0,0-1.42.16c-.16,0-.74,0-1.31.07a3.79,3.79,0,0,0-1.68.33,11.14,11.14,0,0,1-2.23.55,7.18,7.18,0,0,0-3.73,1.72A18.32,18.32,0,0,0,35,80.88a9.21,9.21,0,0,0-1.77,3.68c-.11.58-.24,1.15-.35,1.72a3.51,3.51,0,0,0-.55,2.9,15.1,15.1,0,0,0-.31,2.72,24.3,24.3,0,0,0,0,4.09,23.39,23.39,0,0,1,.22,3.81c0,1.33-.08,2.66-.08,4.07s.12,2.65.13,3.95c0,.1,0,.2,0,.31-2.12-2.2-4-5.47-5.92-8.64a.29.29,0,0,1-.13-.14c-.1-.19-.21-.36-.31-.54s-.2-.35-.3-.51-.32-.46-.45-.7h0c-.54-.84-1.09-1.66-1.65-2.43a2.47,2.47,0,0,1-.37-.83,2.68,2.68,0,0,0-.63-1.25,1.1,1.1,0,0,0-.25-.17,1.12,1.12,0,0,0,.3-.55,2.28,2.28,0,0,0,.05-.56c0-.7-.18-1.55-.18-1.8s0-.54,0-.82a2.37,2.37,0,0,0-.27-.93.79.79,0,0,0-.71-.47.82.82,0,0,0-.73.4.83.83,0,0,0,0,.81c.11.21.07.17.08.25s0,.34,0,.77a5.51,5.51,0,0,0,.06.7h0a5.82,5.82,0,0,1,.07.73h0l.11.28s0,0,0,.06c.05.23.08.59.1.71s.08.48.09.71a4.63,4.63,0,0,1-.08.85s0,0,0,0a.69.69,0,0,0,.16.22,2.42,2.42,0,0,1,.22.56,4.3,4.3,0,0,0,.62,1.34c.82,1.1,1.6,2.33,2.38,3.61v0a1.45,1.45,0,0,1,.2.34l.15.37v0s0-.07,0,0,0,.07.05.1c.13.23.27.46.42.68h0l.07.08.13.15c.11.12.21.25.31.38a.45.45,0,0,1,.07.18,35.75,35.75,0,0,0,5.7,7.74.84.84,0,0,0,.6.21c0,.49,0,1,0,1.47,0,1.32.12,2.62.12,3.84s0,2.15,0,3.22c0,1.38.32,2.54.32,3.65,0,.66.12,2.88.23,5.13.08,1.6.14,2.93.19,3.83a.83.83,0,0,0-.17.52.82.82,0,0,0,.23.59.8.8,0,0,0,.81.67.82.82,0,0,0,.74-.44c1.14,0,2.59-.1,3.67-.11.88,0,1.78.07,2.7.14,0,6.86,0,15,1.08,21.63a16.56,16.56,0,0,1,.24,2.61v.1a.53.53,0,0,1-.07.2,4.19,4.19,0,0,1-.56.73,19.15,19.15,0,0,1-2.08,1.91c-.8.64-1.62,1.24-2.25,1.69l-.6.41c-2.15.08-4.31.2-6.45.2H19.34c0,.59.08,1.17.1,1.76H30.52c1.93,0,3.86-.09,5.75-.17a1,1,0,0,0,.38.25.89.89,0,0,0,.87-.16l.1-.06.23-.15.8-.57c.64-.46,1.48-1.07,2.32-1.75a19.73,19.73,0,0,0,2.3-2.11,6.14,6.14,0,0,0,.8-1.1,2.07,2.07,0,0,0,.29-1.18h0a18.64,18.64,0,0,0-.27-2.92c-1-6.38-1-14.35-1-21.19a16.58,16.58,0,0,0,2.81-.1c1.86-.24,4,.2,6.28-.31a.65.65,0,0,0,.05.2.56.56,0,0,0,.09.19.68.68,0,0,1-.09-.16v.36c0,.39,0,1-.06,1.7-.08,1.41-.2,3.31-.34,5.29s-.27,4-.37,5.75a37.16,37.16,0,0,0-.09,3.84c.26,3.35-.5,6-.22,9.53,0,.58.19.53.26.61l.22.21c.14.14.32.28.52.45.41.33.94.74,1.49,1.16s1.1.84,1.55,1.19.85.63.89.68a.92.92,0,0,0,1.08.09h0c2.83.18,15.15-.08,24.25-.26L82,163a.59.59,0,0,1,.23,0l.47-.17.56-1.07a.48.48,0,0,1,.28-.21v0l.06-.14h0v0C73.64,161.51,57.85,161.86,57.06,161.66ZM49.89,88.21c.92-1,2.49-1.12,3.73-1.51a14.33,14.33,0,0,1,3.06-.32,16.52,16.52,0,0,1,5.29,1c.63,1.33-.1,2.89-.62,4.14a3.21,3.21,0,0,1-2.29,2.16c-2.6.89-5.39-.16-7.6-1.61C50.55,91,49.63,89.65,49.89,88.21Zm-2.33,3.52a.76.76,0,0,1,1.3.46c0,.45.08,1.69.12,2.9,0,.61,0,1.19.05,1.64s0,.66,0,.78a.77.77,0,0,1-.37.68.72.72,0,0,1-.76,0,.76.76,0,0,1-.36-.68s0-.31,0-.75,0-1,0-1.64c0-1.2-.08-2.54-.11-2.82A.74.74,0,0,1,47.56,91.73ZM35.54,93a8.19,8.19,0,0,1-1.82-5.12c.3-1.14,1.89-.89,2.79-1.27a14.74,14.74,0,0,1,9.33,1.25c.69,1.07-.15,2.42-.73,3.35-.72,1.18-2.08,1.58-3.24,2.11A7,7,0,0,1,35.54,93ZM52,105.54c-1.13.54-2.49,1.53-4.21,1.18a9,9,0,0,1-2.92-1.17,4.13,4.13,0,0,1-1.43-1.29,11.09,11.09,0,0,0-.89-1.25c-.28-.33-.7-.87-1.09-1.42a4.47,4.47,0,0,1-.86-1.64s0,0,0-.06l-.35-.52c-.09-.15-.19-.28-.12-.21a.73.73,0,0,1-.12-.8.75.75,0,0,1,.67-.44.73.73,0,0,1,.6.27,2.52,2.52,0,0,1,.24.37c.09.14.18.31.3.48a3.67,3.67,0,0,0,.67.76,12,12,0,0,0,6.28,2.08,10.37,10.37,0,0,0,5.45-2,11.71,11.71,0,0,0,1.63-1.8.76.76,0,0,1,.62-.3l.09,0A.74.74,0,0,1,57,99.09c-.25.29-.56.73-.94,1.15a.19.19,0,0,1,0,.08c0,.1-.12.32-.2.56a2.75,2.75,0,0,1-.32.72C54.76,102.67,53.74,104.69,52,105.54Z"/><path class="cls-3" d="M22,93.64c-.21-.52-.39-1.06-.65-1.56A4.73,4.73,0,0,0,20.44,91a13.32,13.32,0,0,1-.91-1.22,5.94,5.94,0,0,0-1.2-1c-.34-.24-.71.1-.75.44-.07.56.48,1.14.8,1.56a8.75,8.75,0,0,0,1.06,1.13,8.44,8.44,0,0,1,1,1.06,6.9,6.9,0,0,0,.88,1.32.51.51,0,0,0,.79-.61,2.1,2.1,0,0,0-1.33-.86,11,11,0,0,0-1.71-.44c-.59-.11-1.18-.18-1.78-.25s-1.37-.26-1.42.51a.5.5,0,0,0,.37.48l3.24.77a5,5,0,0,1,1.33.4,2.8,2.8,0,0,1,.91.9l.79-.61a8.75,8.75,0,0,0-2.78-1.7c-.52-.2-.9.68-.38.92a6,6,0,0,1,1.53.88c.44.38.79.85,1.26,1.2a.5.5,0,0,0,.68-.18.51.51,0,0,0-.17-.68c-.46-.34-.78-.83-1.22-1.18a7.54,7.54,0,0,0-1.58-.91l-.39.92a7.15,7.15,0,0,1,2.34,1.44c.4.36,1.12-.11.79-.61a4.11,4.11,0,0,0-1-1.09,3.94,3.94,0,0,0-1.46-.59c-1.2-.28-2.4-.55-3.6-.84l.37.48v0l-.25.43.06,0-.25.07a5.38,5.38,0,0,1,1.32.13c.43.05.86.11,1.28.2a10.72,10.72,0,0,1,1.27.32c.29.09.8.18.94.48l.79-.61a5.68,5.68,0,0,1-.73-1.12,7.84,7.84,0,0,0-.95-1.05c-.33-.32-.68-.63-1-1-.17-.19-.31-.4-.46-.6s-.35-.41-.33-.61l-.75.43a4.68,4.68,0,0,1,1,.85,11.88,11.88,0,0,0,.85,1.16,4.58,4.58,0,0,1,.82.94,11,11,0,0,1,.57,1.37.51.51,0,0,0,.62.34.5.5,0,0,0,.35-.61Z"/><path class="cls-3" d="M21.61,91.93,22,94a.49.49,0,0,0,.55.36A.5.5,0,0,0,23,93.9a2.52,2.52,0,0,0-.11-.61L22.78,93a.77.77,0,0,1,0-.15c0,.13,0,0,0-.05a6.14,6.14,0,0,0-.2-1.2.5.5,0,1,0-1,.27,2.48,2.48,0,0,1,.12.54c0-.13,0,0,0,0a1,1,0,0,0,0,.16l0,.25a4.22,4.22,0,0,0,.1.62,2.5,2.5,0,0,0,.07.26s0,.07,0,.11,0,.05,0,0v.07l1-.13-.35-2.11a.51.51,0,0,0-.62-.35.52.52,0,0,0-.35.62Z"/></svg>