<svg xmlns="http://www.w3.org/2000/svg" width="40.439" height="43.135" viewBox="0 0 40.439 43.135">
  <path id="Icon_metro-calendar" data-name="Icon metro-calendar" d="M16.05,18.1h5.392V23.5H16.05Zm8.088,0H29.53V23.5H24.138Zm8.088,0h5.392V23.5H32.226ZM7.963,34.279h5.392v5.392H7.963Zm8.088,0h5.392v5.392H16.05Zm8.088,0H29.53v5.392H24.138ZM16.05,26.192h5.392v5.392H16.05Zm8.088,0H29.53v5.392H24.138Zm8.088,0h5.392v5.392H32.226Zm-24.264,0h5.392v5.392H7.963ZM37.618,1.928v2.7H32.226v-2.7H13.355v2.7H7.963v-2.7H2.571V45.063H43.01V1.928H37.618Zm2.7,40.439H5.267V12.712H40.314Z" transform="translate(-2.571 -1.928)" fill="#78afc5"/>
</svg>
